<?xml version="1.0" encoding="UTF-8" standalone="no"?>
<!DOCTYPE svg PUBLIC "-//W3C//DTD SVG 20010904//EN"
"http://www.w3.org/TR/2001/REC-SVG-20010904/DTD/svg10.dtd">
<!-- Created with Inkscape (http://www.inkscape.org/) -->
<svg
   id="svg1"
   sodipodi:version="0.32"
   inkscape:version="0.38cvs-040410.1009"
   width="210mm"
   height="297mm"
   sodipodi:docname="l.svg"
   xmlns="http://www.w3.org/2000/svg"
   xmlns:inkscape="http://www.inkscape.org/namespaces/inkscape"
   xmlns:sodipodi="http://sodipodi.sourceforge.net/DTD/sodipodi-0.dtd"
   xmlns:xlink="http://www.w3.org/1999/xlink"
   sodipodi:docbase="D:\Documents and Settings\Administrateur\Bureau">
  <defs
     id="defs3">
    <linearGradient
       id="linearGradient831">
      <stop
         style="stop-color:#006798;stop-opacity:1.0000000;"
         offset="0.00000000"
         id="stop832" />
      <stop
         style="stop-color:#001d3d;stop-opacity:1.0000000;"
         offset="1.0000000"
         id="stop833" />
    </linearGradient>
    <radialGradient
       xlink:href="#linearGradient831"
       id="radialGradient834" />
  </defs>
  <sodipodi:namedview
     id="base"
     pagecolor="#ffffff"
     bordercolor="#666666"
     borderopacity="1.0"
     inkscape:pageopacity="0.0"
     inkscape:pageshadow="2"
     inkscape:zoom="1.0000000"
     inkscape:cx="298.41177"
     inkscape:cy="436.91785"
     inkscape:window-width="1280"
     inkscape:window-height="909"
     inkscape:window-x="-4"
     inkscape:window-y="-4" />
  <path
     style="fill:#ff6b00;fill-opacity:1.0000000;fill-rule:evenodd;stroke:#000000;stroke-width:3.7500000;stroke-linecap:round;stroke-linejoin:round;stroke-dashoffset:0.00000000;"
     id="path897"
     d="M 450.09262,674.32530 C 447.80444,680.69404 459.78738,661.85917 464.01692,656.57641 C 469.80686,649.29221 476.68636,648.62160 487.11528,644.67634 C 487.11528,644.67634 466.02541,660.09380 457.38379,677.74425 L 450.09262,674.32530 z "
     sodipodi:nodetypes="ccccc" />
  <path
     style="fill:#ff6b00;fill-opacity:1.0000000;fill-rule:evenodd;stroke:#000000;stroke-width:3.7500000;stroke-linecap:round;stroke-linejoin:round;stroke-dashoffset:0.00000000;"
     id="path891"
     d="M 444.10089,645.01460 C 439.64816,650.11065 460.34519,636.26206 466.20969,632.88505 C 476.46662,629.98107 478.89755,631.51021 489.38513,630.90516 C 489.38513,630.90516 468.73771,635.52228 449.64360,650.85658 L 444.10089,645.01460 z "
     sodipodi:nodetypes="ccccc" />
  <path
     style="fill:#ff6b00;fill-rule:evenodd;stroke:#000000;stroke-width:3.7500000;stroke-linecap:round;stroke-linejoin:round;stroke-dashoffset:0.00000000;stroke-dasharray:none;"
     d="M 431.23584,586.87357 C 476.41474,554.90827 517.92864,557.39375 552.70714,564.08597 C 587.99454,570.77818 584.50944,564.30750 628.07114,570.23211 C 594.10664,580.05229 556.43884,577.26263 574.49024,614.64253 C 546.56544,586.34831 510.76144,568.62193 463.71204,589.60833 C 438.79564,608.39705 453.76544,634.52771 456.34394,650.15422 C 470.62864,670.87039 506.88774,684.91286 537.09864,677.69466 C 542.17294,675.97331 576.22014,667.38480 569.19664,627.46009 C 616.97104,678.84614 637.29584,636.16888 665.18644,601.78638 C 650.03794,655.01336 614.49444,672.41656 581.92114,685.63033 C 549.34784,698.33513 510.03114,708.24582 487.62844,701.46458 C 464.71674,694.68335 439.48074,670.56656 424.39644,657.20404 C 418.98244,639.26084 386.05684,618.32990 431.23584,586.87357 z "
     id="path879"
     sodipodi:nodetypes="czccccscczzcz" />
  <path
     style="fill:#ff6b00;fill-rule:evenodd;stroke:#000000;stroke-width:6.2500000;stroke-linecap:round;stroke-linejoin:bevel;stroke-dashoffset:0.00000000;"
     d="M 356.20774,249.53530 C 268.01854,183.48602 252.08062,167.46049 149.27801,169.86941 C 226.99247,154.52197 228.21989,156.14620 290.00118,182.18472 C 335.10631,213.16983 389.85084,263.66429 374.32821,249.87671 C 369.85232,250.70730 356.20774,249.53530 356.20774,249.53530 z "
     id="path844"
     sodipodi:nodetypes="ccccc" />
  <path
     style="fill:#ff6b00;fill-rule:evenodd;stroke:#000000;stroke-width:6.2500000;stroke-linecap:round;stroke-linejoin:bevel;stroke-dashoffset:0.00000000;"
     d="M 393.91652,265.32844 C 379.20638,156.13387 379.46405,133.53369 305.68585,61.902991 C 371.10617,106.57139 370.80811,108.58531 395.54334,170.89984 C 405.06136,224.78820 407.42202,299.22663 406.37469,278.49134 C 402.64491,275.88133 393.91652,265.32844 393.91652,265.32844 z "
     id="path843"
     sodipodi:nodetypes="ccccc" />
  <path
     style="fill:#ff6b00;fill-rule:evenodd;stroke:#000000;stroke-width:6.2500000;stroke-linecap:round;stroke-linejoin:bevel;stroke-dashoffset:0.00000000;"
     d="M 368.88245,244.42015 C 475.99923,270.22399 498.50719,272.27973 562.21437,352.99884 C 524.47300,283.35207 522.43915,283.44254 462.98204,252.46215 C 410.35013,237.48115 336.54376,227.51764 357.06311,230.68074 C 359.27786,234.65797 368.88245,244.42015 368.88245,244.42015 z "
     id="path840"
     sodipodi:nodetypes="ccccc" />
  <path
     style="fill:#ff6b00;fill-rule:evenodd;stroke:#000000;stroke-width:6.2500000;stroke-linecap:round;stroke-linejoin:bevel;stroke-dashoffset:0.00000000;"
     d="M 275.58086,282.22698 C 172.79656,242.53780 151.64456,273.76701 53.338542,303.93501 C 123.98950,268.10865 127.06700,264.05483 190.04754,251.80002 C 246.64810,251.31611 307.73969,283.63626 289.06244,274.56930 C 284.97891,276.58136 275.58086,282.22698 275.58086,282.22698 z "
     id="path842"
     sodipodi:nodetypes="ccccc" />
  <path
     style="fill:#ff6b00;fill-rule:evenodd;stroke:#000000;stroke-width:6.2500000;stroke-linecap:round;stroke-linejoin:bevel;stroke-dashoffset:0.00000000;"
     d="M 443.00699,167.25669 C 449.65724,110.65044 501.19784,78.228121 541.06599,69.651421 C 580.93414,61.074711 564.98687,59.359371 608.21426,32.026681 C 574.24977,69.330901 564.64729,72.648811 566.41182,86.107408 C 544.08565,74.100031 500.41713,91.838068 484.46987,117.56819 C 468.52261,143.29829 475.20697,158.41585 487.96478,175.56926 C 505.81222,190.68683 522.20061,189.66890 550.90568,177.66151 C 577.57490,162.60034 601.22445,125.61663 591.65609,105.03254 C 613.98225,118.75527 632.78019,88.802098 648.96467,70.197481 C 598.81488,127.21921 598.78158,162.71309 576.89655,181.52547 C 547.88601,208.48125 507.23716,215.92726 478.53209,209.06589 C 470.55847,186.76646 448.09663,164.20291 443.00699,167.25669 z "
     id="path838"
     sodipodi:nodetypes="cccccccccccc" />
  <path
     style="fill:#ff6b00;fill-rule:evenodd;stroke:#000000;stroke-width:6.2500000;stroke-linecap:round;stroke-linejoin:bevel;stroke-dashoffset:0.00000000;"
     d="M 313.38939,347.05828 C 282.85157,452.92274 245.18825,450.88689 161.71819,510.94461 C 232.97312,476.33508 238.06276,476.33508 285.90535,433.58213 C 320.51489,388.79332 331.71209,320.59217 327.64038,340.95072 C 323.56867,342.98657 313.38939,347.05828 313.38939,347.05828 z "
     id="path839"
     sodipodi:nodetypes="ccccc" />
  <path
     style="fill:#ff6b00;fill-rule:evenodd;stroke:#000000;stroke-width:6.2500000;stroke-linecap:round;stroke-linejoin:bevel;stroke-dashoffset:0.00000000;"
     d="M 381.57616,289.62911 C 397.98366,398.58156 404.55011,420.20832 353.74252,509.61060 C 404.06427,448.43214 403.21502,446.58188 409.54046,379.83668 C 403.61160,325.43633 385.06501,253.30674 389.85707,273.50787 C 387.00581,277.05664 381.57616,289.62911 381.57616,289.62911 z "
     id="path841"
     sodipodi:nodetypes="ccccc" />
  <rect
     style="fill:#0000ff;fill-opacity:0.75000000;fill-rule:evenodd;stroke:#000000;stroke-width:1.2500000;stroke-linecap:round;stroke-linejoin:round;stroke-dasharray:none;"
     id="rect835"
     width="0.00000000"
     height="0.00000000"
     x="-183.69159"
     y="261.62174" />
  <path
     style="fill:#ff6b00;fill-rule:evenodd;stroke:#000000;stroke-width:6.2500000;stroke-linecap:round;stroke-linejoin:bevel;stroke-dashoffset:0.00000000;"
     d="M 423.34162,184.28549 C 443.13149,164.53762 459.18420,153.73407 470.18040,153.19136 C 481.17658,152.64865 509.88142,178.76294 503.50559,190.34031 C 497.12976,201.91767 467.77340,223.38909 456.88762,226.42915 C 444.78745,201.99816 423.34162,184.28549 423.34162,184.28549 z "
     id="path837"
     sodipodi:nodetypes="ccccc" />
  <path
     style="fill:#ff6b00;fill-rule:evenodd;stroke:#000000;stroke-width:6.0200148;stroke-linecap:round;stroke-linejoin:bevel;stroke-dashoffset:0.00000000;"
     d="M 344.47210,223.16564 C 276.91823,235.61675 237.38540,263.45196 204.37936,298.85013 C 183.74492,328.55276 167.94666,336.75831 185.10899,370.19577 C 219.33030,405.72583 258.28446,388.41397 290.38526,376.12210 C 323.82116,359.48580 356.50066,336.67061 393.76419,290.29871 C 367.15266,255.92755 344.47210,223.16564 344.47210,223.16564 z "
     id="path835"
     sodipodi:nodetypes="cccccc" />
  <path
     style="fill:#ff6b00;fill-rule:evenodd;stroke:#000000;stroke-width:6.2500000;stroke-linecap:round;stroke-linejoin:bevel;stroke-dashoffset:0.00000000;"
     d="M 340.87344,223.88905 C 371.41127,193.35122 395.84153,177.06438 412.12837,177.06438 C 428.41521,177.06438 469.13231,221.85320 458.95303,240.17589 C 448.77376,258.49859 403.98495,291.07227 387.69811,295.14398 C 371.41127,254.42688 340.87344,223.88905 340.87344,223.88905 z "
     id="path836"
     sodipodi:nodetypes="ccccc" />
  <path
     style="fill:#ff6b00;fill-rule:evenodd;stroke:#000000;stroke-width:3.7500000;stroke-linecap:round;stroke-linejoin:round;stroke-dashoffset:0.00000000;stroke-dasharray:none;"
     id="path858"
     d="M 377.96986,755.86164 C 375.28347,756.69349 391.42539,789.17674 396.95473,794.78976 C 408.97749,806.55254 436.06349,819.63022 448.90664,823.95284 C 461.74979,828.27546 470.24129,831.57487 480.77134,835.18358 C 491.30139,838.79229 509.98480,838.03139 524.34234,832.72825 C 536.74116,828.00314 538.59068,828.45051 550.60984,828.74466 C 562.00438,829.02353 595.76761,843.99317 581.88894,842.10652 C 581.88894,842.10652 550.12922,833.51025 531.86934,841.57912 C 522.22206,845.60867 507.79844,847.48330 496.24674,848.37717 C 484.42387,848.65235 454.44153,838.54049 444.81174,834.26943 C 435.44323,830.11426 415.30612,821.87428 402.48464,814.57685 C 392.55002,808.92250 384.71389,802.15042 375.02684,788.64440 C 365.33979,775.13837 356.38440,762.54570 360.59334,761.24238 L 377.96986,755.86164 z "
     sodipodi:nodetypes="csssssssssssss" />
  <path
     style="fill:#ff6b00;fill-rule:evenodd;stroke:#000000;stroke-width:3.7500000;stroke-linecap:round;stroke-linejoin:round;stroke-dashoffset:0.00000000;stroke-dasharray:none;"
     d="M 322.81034,658.90941 C 318.07074,660.31112 334.96773,622.46538 338.41814,614.07382 C 342.30463,604.62168 359.93215,574.02967 366.83834,568.13357 C 373.60005,562.36083 374.64391,561.18210 381.25944,553.87436 C 384.67401,550.10250 391.42971,538.44507 390.64044,544.71190 C 390.64044,544.71190 383.19902,558.57735 379.45286,564.79078 C 373.43262,574.48497 359.63832,590.01110 356.63074,596.25706 C 352.27632,605.30006 350.49334,609.20832 346.77634,618.52489 C 343.55874,626.58971 334.78695,655.36738 331.18846,656.43162 L 322.81034,658.90941 z "
     id="path883"
     sodipodi:nodetypes="csssssssss" />
  <path
     style="fill:#ff6b00;fill-rule:evenodd;stroke:#000000;stroke-width:3.7500000;stroke-linecap:round;stroke-linejoin:round;stroke-dashoffset:0.00000000;stroke-dasharray:none;"
     d="M 301.32110,662.49676 C 304.17256,654.01547 325.87943,638.28421 352.21744,643.66509 C 373.21313,647.95452 398.60812,696.14279 417.36484,721.53654 C 431.69072,740.93160 387.34651,759.74012 372.57604,765.30744 C 354.26381,772.20973 351.37428,749.07869 330.77734,716.51053 C 312.99228,688.38855 294.24780,683.53538 301.32110,662.49676 z "
     id="path851"
     sodipodi:nodetypes="csssss" />
  <path
     style="fill:#ff6b00;fill-rule:evenodd;stroke:#000000;stroke-width:3.7500000;stroke-linecap:round;stroke-linejoin:round;stroke-dashoffset:0.00000000;stroke-dasharray:none;"
     id="path856"
     d="M 321.32704,798.23746 C 330.59142,798.03274 315.99759,817.82552 311.42934,828.92621 C 306.31418,842.87459 303.64967,848.84052 295.66168,862.46275 C 291.84018,869.85727 280.50651,885.00574 274.56639,892.55147 C 266.88446,902.30984 250.30235,931.13104 243.48245,940.98081 C 235.01458,953.40704 214.61284,965.88938 197.24158,969.61655 C 186.21110,972.42519 160.99483,970.84967 148.60936,970.53580 C 142.00666,970.36847 123.30930,977.01046 118.38523,977.62437 L 100.89264,979.80530 C 100.27283,979.88258 113.35969,973.14552 121.71842,969.78220 C 131.60249,965.80512 140.37421,963.05147 150.97661,962.83860 C 164.59031,962.56527 172.96387,964.16097 187.30059,962.02060 C 197.39704,960.51327 216.53864,953.57973 234.14172,934.02685 C 240.77066,926.64475 245.80253,916.99144 250.53878,908.25225 C 254.63933,900.68604 274.97967,871.85690 279.39589,864.24565 C 286.36324,852.23760 289.08837,841.69127 293.83222,828.61458 C 296.65912,820.82207 296.28933,809.81653 297.93264,801.67428 C 297.99485,801.36604 296.93707,798.77641 298.29424,798.74642 L 321.32704,798.23746 z "
     sodipodi:nodetypes="cssssssssssssssssss" />
  <path
     style="fill:#ff6b00;fill-rule:evenodd;stroke:#000000;stroke-width:3.7500000;stroke-linecap:round;stroke-linejoin:round;stroke-dashoffset:0.00000000;stroke-dasharray:none;"
     id="path857"
     d="M 346.65194,781.44989 C 351.78829,777.02104 355.11836,796.29121 355.84597,799.03456 C 363.54286,827.61273 359.75513,844.73070 357.82997,855.46626 C 355.82341,864.94131 347.92211,884.86084 347.85191,894.67550 C 347.79371,902.81239 345.91893,921.39746 344.43389,929.30842 C 342.64313,938.84796 335.17924,949.32389 329.80213,954.04769 C 323.67494,959.43044 307.54723,962.66358 302.87009,965.27320 L 281.50230,977.19540 C 273.38768,981.72297 288.92874,961.97827 297.42823,958.34890 C 305.03654,955.10007 307.79011,953.16897 316.69854,950.69110 C 324.86641,948.41922 328.69949,944.22951 333.36574,932.95575 C 337.13269,923.85471 338.41409,912.71503 338.45214,904.60105 C 338.49149,896.21133 338.20876,886.25641 340.63304,878.23735 C 347.62095,856.58454 349.88011,845.88761 349.42614,823.99361 C 349.21959,814.23343 332.00833,794.07644 335.62560,790.95742 L 346.65194,781.44989 z "
     sodipodi:nodetypes="csssssssssssssss" />
  <path
     style="fill:#ff6b00;fill-rule:evenodd;stroke:#000000;stroke-width:3.7500000;stroke-linecap:round;stroke-linejoin:round;stroke-dashoffset:0.00000000;stroke-dasharray:none;"
     d="M 213.88520,693.03436 C 217.52207,690.10410 178.76899,691.79819 169.65971,693.01196 C 160.55043,694.22573 134.61825,699.69843 124.38367,698.98491 C 99.916727,697.24832 86.089866,688.77545 72.238140,682.25946 C 63.062709,677.65050 54.266705,675.20492 47.820461,675.11622 C 41.014395,675.02256 34.748884,674.51341 30.813825,676.93285 C 26.878774,679.35229 24.251588,680.17292 22.808041,680.94525 L 14.057628,685.62694 C 10.385904,687.59140 28.620922,666.73382 44.048561,665.81017 C 56.828835,665.02245 62.527616,667.67534 71.028642,670.93008 C 79.843530,674.30498 100.06923,687.22151 118.46904,689.42341 C 126.64298,690.42565 151.95481,686.14691 172.49518,682.60341 C 182.94410,680.76119 193.92002,676.97392 202.57348,676.56013 C 210.67696,675.75878 232.68664,677.88583 227.87273,681.76445 L 213.88520,693.03436 z "
     id="path864"
     sodipodi:nodetypes="cssssssssssssss" />
  <path
     style="fill:#ff6b00;fill-rule:evenodd;stroke:#000000;stroke-width:3.7500000;stroke-linecap:round;stroke-linejoin:round;stroke-dashoffset:0.00000000;stroke-dasharray:none;"
     d="M 273.75596,666.68528 C 269.10461,667.03831 259.23865,657.77487 249.35903,653.16745 C 239.47941,648.56003 232.72513,645.73977 223.24317,640.72265 C 213.76122,635.70553 202.27095,625.89782 195.00855,619.65529 C 184.37386,610.13415 183.80375,592.41969 182.33454,587.27447 L 179.08603,568.67587 C 178.77919,566.11208 184.34478,575.01278 187.67849,580.68277 C 191.10459,586.50991 191.16831,590.43989 193.71380,599.18528 C 198.45575,613.95858 216.77764,625.13478 225.23317,629.82081 C 233.68871,634.50685 259.53799,645.46983 273.11599,653.47932 C 279.11250,656.82141 289.05129,665.52437 286.71206,665.70192 L 273.75596,666.68528 z "
     id="path866"
     sodipodi:nodetypes="csssssssssss" />
  <path
     style="fill:#ff6b00;fill-rule:evenodd;stroke:#000000;stroke-width:3.7500000;stroke-linecap:round;stroke-linejoin:round;stroke-dashoffset:0.00000000;stroke-dasharray:none;"
     id="path863"
     d="M 400.21304,606.29600 C 398.91798,598.70345 396.01906,593.01795 389.66231,588.81170 C 382.43106,584.02680 373.12506,578.68757 364.97804,575.95639 C 356.09736,572.97926 350.78732,568.86397 343.77354,562.58591 C 336.72922,556.28051 334.15359,538.73540 334.46504,535.12689 L 335.96210,517.78192 C 336.24971,514.44961 341.13960,538.27445 341.56434,541.59279 C 342.31170,547.43157 344.96764,554.10390 349.42564,558.15665 C 354.02554,562.33840 361.86334,566.47928 367.41164,569.14745 C 377.85884,574.17148 384.70179,575.58866 394.05894,582.08465 C 403.37689,588.55343 403.16685,594.47104 405.42484,605.71544 C 405.42484,605.71544 400.92208,610.45288 400.21304,606.29600 z "
     sodipodi:nodetypes="csssssssssss" />
  <path
     style="fill:#ff6b00;fill-rule:evenodd;stroke:#000000;stroke-width:3.7500000;stroke-linecap:round;stroke-linejoin:round;stroke-dashoffset:0.00000000;stroke-dasharray:none;fill-opacity:1.0000000;"
     d="M 360.65794,608.54661 C 366.87265,600.14196 393.35859,604.70686 407.48264,599.89422 C 410.53609,598.85378 408.29998,606.34165 410.72334,612.79029 C 413.12718,619.18702 425.15324,627.87530 431.37214,633.01663 C 443.80994,643.29928 464.23428,651.82604 476.44724,661.03349 C 480.52108,664.10479 461.77338,662.16876 455.48424,665.92431 C 449.49458,669.50102 455.08550,679.51176 453.28934,682.34634 C 446.94210,692.36310 438.98644,739.43630 410.02744,716.44693 C 380.96454,693.37507 383.08460,679.68869 374.84534,665.61416 C 368.11490,654.11705 340.15205,636.27840 360.65794,608.54661 z "
     id="path853"
     sodipodi:nodetypes="csssssssss" />
  <path
     style="fill:#ff6b00;fill-rule:evenodd;stroke:#000000;stroke-width:3.7500000;stroke-linecap:round;stroke-linejoin:round;stroke-dashoffset:0.00000000;stroke-dasharray:none;"
     id="path862"
     d="M 461.91624,689.19636 C 472.13751,694.03054 479.21682,699.29217 484.75420,709.16779 C 489.10682,716.93046 490.62026,724.79527 493.91354,732.84641 C 497.50021,742.69524 498.48578,748.69510 507.02764,754.43262 C 514.68328,759.57488 522.10983,759.80519 533.75124,760.49918 C 539.74983,760.85678 552.53302,759.28777 549.11144,760.32128 L 532.17041,765.43840 C 527.37611,766.88655 507.45408,765.35976 497.64253,756.35386 C 490.70348,749.98459 487.73048,739.89017 484.69484,731.03970 C 478.54261,713.54467 472.21462,702.93530 460.65784,696.78767 C 450.97090,692.00514 440.68864,696.48224 443.28274,686.49906 C 443.28274,686.49906 453.42081,685.17841 461.91624,689.19636 z "
     sodipodi:nodetypes="csssssssssss" />
  <path
     style="fill:#ff6b00;fill-opacity:1.0000000;fill-rule:evenodd;stroke:#000000;stroke-width:3.7500000;stroke-linecap:round;stroke-linejoin:round;stroke-dashoffset:0.00000000;stroke-opacity:1.0000000;stroke-dasharray:none;"
     d="M 280.95176,655.39046 C 264.14051,652.50685 235.30279,668.93690 179.09148,705.71785 C 109.04617,751.55086 96.275616,775.50012 98.671390,817.66311 C 118.73768,844.38580 147.45965,854.17841 244.13460,835.09065 C 300.44504,823.97256 350.14769,795.92175 354.69014,780.85276 C 363.33239,752.18323 300.50698,658.74473 280.95176,655.39046 z "
     id="path890"
     sodipodi:nodetypes="cscsss" />
  <path
     style="fill:#ff6b00;fill-rule:evenodd;stroke:#000000;stroke-width:1.2500000;stroke-linecap:round;stroke-linejoin:round;stroke-dashoffset:0.00000000;stroke-dasharray:none;"
     id="path899"
     d="M 637.24171,976.60992 C 637.09202,977.10297 637.87579,975.64492 638.15246,975.23601 C 638.53123,974.67212 638.98121,974.62021 639.66338,974.31485 C 639.66338,974.31485 638.28385,975.50832 637.71861,976.87463 L 637.24171,976.60992 z "
     sodipodi:nodetypes="ccccc" />
  <path
     style="fill:#ff6b00;fill-rule:evenodd;stroke:#000000;stroke-width:1.2500000;stroke-linecap:round;stroke-linejoin:round;stroke-dashoffset:0.00000000;stroke-dasharray:none;"
     id="path900"
     d="M 636.84973,974.34103 C 636.55848,974.73548 637.91233,973.66351 638.29594,973.40207 C 638.96682,973.17726 639.12587,973.29568 639.81188,973.24880 C 639.81188,973.24880 638.46125,973.60625 637.21230,974.79324 L 636.84973,974.34103 z "
     sodipodi:nodetypes="ccccc" />
  <path
     style="fill:#ff6b00;fill-rule:evenodd;stroke:#000000;stroke-width:1.2500000;stroke-linecap:round;stroke-linejoin:round;stroke-dashoffset:0.00000000;stroke-dasharray:none;"
     d="M 636.00819,969.84034 C 638.96347,967.36592 641.67893,967.55831 643.95390,968.07637 C 646.26206,968.59441 646.03409,968.09351 648.88353,968.55213 C 646.66192,969.31231 644.19800,969.09636 645.37872,971.98989 C 643.55212,969.79968 641.21015,968.42748 638.13255,970.05204 C 636.50271,971.50646 637.48189,973.52923 637.65056,974.73887 C 638.58495,976.34251 640.95675,977.42952 642.93292,976.87079 C 643.26478,976.73753 645.49192,976.07271 645.03246,972.98215 C 648.15752,976.95989 649.48699,973.65627 651.31136,970.99473 C 650.32045,975.11501 647.99548,976.46219 645.86481,977.48508 C 643.73412,978.46852 641.16239,979.23570 639.69694,978.71077 C 638.19824,978.18588 636.54756,976.31899 635.56082,975.28457 C 635.20667,973.89562 633.05298,972.27537 636.00819,969.84034 z "
     id="path901"
     sodipodi:nodetypes="czccccscczzcz" />
  <rect
     style="fill:#0000ff;fill-opacity:0.75000000;fill-rule:evenodd;stroke:#000000;stroke-width:1.2500000;stroke-linecap:round;stroke-linejoin:round;stroke-dasharray:none;"
     id="rect902"
     width="0.00000000"
     height="0.00000000"
     x="564.06610"
     y="828.24166" />
  <path
     style="fill:#ff6b00;fill-rule:evenodd;stroke:#000000;stroke-width:1.2500000;stroke-linecap:round;stroke-linejoin:round;stroke-dashoffset:0.00000000;stroke-dasharray:none;"
     id="path903"
     d="M 632.52397,982.92163 C 632.34829,982.98606 633.40414,985.50053 633.76585,985.93505 C 634.55223,986.84563 636.32400,987.85795 637.16410,988.19256 C 638.00421,988.52717 638.55964,988.78256 639.24845,989.06193 C 639.93719,989.34129 641.15935,989.28240 642.09845,988.87185 C 642.90953,988.50609 643.03049,988.54069 643.81669,988.56348 C 644.56200,988.58506 646.77054,989.74386 645.86269,989.59782 C 645.86269,989.59782 643.78523,988.93238 642.59087,989.55699 C 641.95981,989.86894 641.01630,990.01403 640.26069,990.08324 C 639.48733,990.10452 637.52612,989.32179 636.89624,988.99114 C 636.28343,988.66950 634.96624,988.03168 634.12756,987.46678 C 633.47771,987.02905 632.96514,986.50486 632.33148,985.45931 C 631.69782,984.41383 631.11205,983.43908 631.38735,983.33815 L 632.52397,982.92163 z "
     sodipodi:nodetypes="csssssssssssss" />
  <path
     style="fill:#ff6b00;fill-rule:evenodd;stroke:#000000;stroke-width:1.2500000;stroke-linecap:round;stroke-linejoin:round;stroke-dashoffset:0.00000000;stroke-dasharray:none;"
     d="M 628.91592,975.41659 C 628.60589,975.52512 629.71118,972.59550 629.93685,971.94592 C 630.19106,971.21421 631.34412,968.84610 631.79589,968.38968 C 632.23819,967.94282 632.30642,967.85158 632.73915,967.28589 C 632.96253,966.99391 633.40445,966.09151 633.35277,966.57662 C 633.35277,966.57662 632.86608,967.64994 632.62098,968.13092 C 632.22721,968.88134 631.32489,970.08322 631.12818,970.56672 C 630.84333,971.26673 630.72671,971.56927 630.48360,972.29047 C 630.27313,972.91475 629.69933,975.14244 629.46392,975.22481 L 628.91592,975.41659 z "
     id="path904"
     sodipodi:nodetypes="csssssssss" />
  <path
     style="fill:#ff6b00;fill-rule:evenodd;stroke:#000000;stroke-width:1.2500000;stroke-linecap:round;stroke-linejoin:round;stroke-dashoffset:0.00000000;stroke-dasharray:none;"
     d="M 627.51027,975.69431 C 627.69680,975.03774 629.11666,973.81998 630.83948,974.23658 C 632.21287,974.56861 633.87397,978.29883 635.10091,980.26457 C 636.03797,981.76591 633.13734,983.22188 632.17119,983.65282 C 630.97335,984.18713 630.78434,982.39656 629.43705,979.87547 C 628.27370,977.69856 627.04758,977.32287 627.51027,975.69431 z "
     id="path905"
     sodipodi:nodetypes="csssss" />
  <path
     style="fill:#ff6b00;fill-rule:evenodd;stroke:#000000;stroke-width:1.2500000;stroke-linecap:round;stroke-linejoin:round;stroke-dashoffset:0.00000000;stroke-dasharray:none;"
     id="path906"
     d="M 628.81891,986.20196 C 629.42489,986.18611 628.47028,987.71827 628.17148,988.57757 C 627.83687,989.65728 627.66257,990.11911 627.14006,991.17359 C 626.89008,991.74603 626.14873,992.91862 625.76022,993.50277 C 625.25769,994.25811 624.17306,996.48920 623.72693,997.25166 C 623.17304,998.21359 621.83855,999.17982 620.70224,999.46832 C 619.98074,999.68569 618.33131,999.56381 617.52110,999.53946 C 617.08923,999.52650 615.86621,1000.0407 615.54413,1000.0882 L 614.39988,1000.2571 C 614.35932,1000.2630 615.21536,999.74155 615.76211,999.48118 C 616.40867,999.17335 616.98241,998.96014 617.67593,998.94361 C 618.56647,998.92254 619.11421,999.04606 620.05195,998.88030 C 620.71241,998.76363 621.96447,998.22692 623.11592,996.71332 C 623.54958,996.14188 623.87872,995.39464 624.18851,994.71813 C 624.45673,994.13247 625.78721,991.90082 626.07609,991.31163 C 626.53184,990.38205 626.71012,989.56566 627.02041,988.55340 C 627.20532,987.95019 627.18113,987.09826 627.28863,986.46798 C 627.29267,986.44414 627.22350,986.24368 627.31227,986.24135 L 628.81891,986.20196 z "
     sodipodi:nodetypes="cssssssssssssssssss" />
  <path
     style="fill:#ff6b00;fill-rule:evenodd;stroke:#000000;stroke-width:1.2500000;stroke-linecap:round;stroke-linejoin:round;stroke-dashoffset:0.00000000;stroke-dasharray:none;"
     id="path907"
     d="M 630.47542,984.90241 C 630.81145,984.55956 631.02924,986.05127 631.07682,986.26362 C 631.58027,988.47589 631.33251,989.80099 631.20658,990.63197 C 631.07532,991.36543 630.55854,992.90741 630.55395,993.66717 C 630.55010,994.29706 630.42746,995.73573 630.33032,996.34806 C 630.21320,997.08656 629.72501,997.89747 629.37329,998.26317 C 628.97250,998.67982 627.91751,998.93008 627.61157,999.13208 L 626.21387,1000.0550 C 625.68311,1000.4054 626.69964,998.87712 627.25563,998.59608 C 627.75332,998.34464 627.93340,998.19515 628.51613,998.00331 C 629.05041,997.82744 629.30115,997.50315 629.60635,996.63046 C 629.85273,995.92594 629.93660,995.06362 629.93908,994.43548 C 629.94162,993.78609 629.92314,993.01545 630.08175,992.39468 C 630.53881,990.71855 630.68658,989.89052 630.65692,988.19570 C 630.64339,987.44016 629.51757,985.87981 629.75417,985.63838 L 630.47542,984.90241 z "
     sodipodi:nodetypes="csssssssssssssss" />
  <path
     style="fill:#ff6b00;fill-rule:evenodd;stroke:#000000;stroke-width:1.2500000;stroke-linecap:round;stroke-linejoin:round;stroke-dashoffset:0.00000000;stroke-dasharray:none;"
     d="M 621.79090,978.05822 C 622.02880,977.83139 619.49391,977.96251 618.89803,978.05646 C 618.30221,978.15046 616.60594,978.57410 615.93649,978.51886 C 614.33605,978.38440 613.43163,977.72852 612.52552,977.22415 C 611.92536,976.86733 611.35001,976.67807 610.92831,976.67115 C 610.48311,976.66391 610.07332,976.62453 609.81589,976.81177 C 609.55852,976.99908 609.38663,977.06264 609.29222,977.12241 L 608.71984,977.48483 C 608.47965,977.63684 609.67247,976.02231 610.68161,975.95077 C 611.51756,975.88980 611.89037,976.09518 612.44643,976.34711 C 613.02302,976.60836 614.34604,977.60822 615.54959,977.77867 C 616.08424,977.85625 617.73995,977.52503 619.08351,977.25077 C 619.76704,977.10812 620.48493,976.81498 621.05098,976.78295 C 621.58105,976.72091 623.02075,976.88558 622.70588,977.18583 L 621.79090,978.05822 z "
     id="path908"
     sodipodi:nodetypes="cssssssssssssss" />
  <path
     style="fill:#ff6b00;fill-rule:evenodd;stroke:#000000;stroke-width:1.2500000;stroke-linecap:round;stroke-linejoin:round;stroke-dashoffset:0.00000000;stroke-dasharray:none;"
     d="M 625.70718,976.01854 C 625.40292,976.04585 624.75760,975.32881 624.11134,974.97212 C 623.46509,974.61549 623.02329,974.39716 622.40303,974.00875 C 621.78283,973.62040 621.03119,972.86121 620.55615,972.37799 C 619.86052,971.64093 619.82324,970.26967 619.72715,969.87137 L 619.51463,968.43167 C 619.49459,968.23321 619.85866,968.92220 620.07670,969.36112 C 620.30083,969.81219 620.30498,970.11641 620.47148,970.79338 C 620.78164,971.93698 621.98010,972.80213 622.53324,973.16486 C 623.08632,973.52760 624.77714,974.37626 625.66531,974.99628 C 626.05754,975.25501 626.70770,975.92869 626.55467,975.94241 L 625.70718,976.01854 z "
     id="path909"
     sodipodi:nodetypes="csssssssssss" />
  <path
     style="fill:#ff6b00;fill-rule:evenodd;stroke:#000000;stroke-width:1.2500000;stroke-linecap:round;stroke-linejoin:round;stroke-dashoffset:0.00000000;stroke-dasharray:none;"
     id="path910"
     d="M 633.97893,971.34383 C 633.89426,970.75609 633.70462,970.31598 633.28882,969.99038 C 632.81583,969.61998 632.20711,969.20666 631.67419,968.99525 C 631.09326,968.76478 630.74594,968.44622 630.28715,967.96024 C 629.82637,967.47214 629.65789,966.11398 629.67824,965.83464 L 629.77619,964.49199 C 629.79498,964.23403 630.11488,966.07830 630.14267,966.33517 C 630.19155,966.78715 630.36525,967.30365 630.65686,967.61738 C 630.95778,967.94109 631.47041,968.26162 631.83337,968.46816 C 632.51671,968.85707 632.96433,968.96678 633.57641,969.46964 C 634.18594,969.97038 634.17216,970.42846 634.31986,971.29888 C 634.31986,971.29888 634.02533,971.66561 633.97893,971.34383 z "
     sodipodi:nodetypes="csssssssssss" />
  <path
     style="fill:#ff6b00;fill-rule:evenodd;stroke:#000000;stroke-width:1.2500000;stroke-linecap:round;stroke-linejoin:round;stroke-dashoffset:0.00000000;stroke-dasharray:none;"
     d="M 631.39157,971.51804 C 631.79813,970.86744 633.53063,971.22081 634.45447,970.84826 C 634.65422,970.76772 634.50795,971.34736 634.66644,971.84656 C 634.82369,972.34168 635.61031,973.01429 636.01712,973.41227 C 636.83074,974.20821 638.16672,974.86830 638.96558,975.58106 C 639.23207,975.81877 638.00576,975.66889 637.59436,975.95964 C 637.20256,976.23650 637.56824,977.01141 637.45075,977.23082 C 637.03557,978.00625 636.51518,981.65013 634.62097,979.87057 C 632.71987,978.08458 632.85856,977.02514 632.31963,975.93561 C 631.87939,975.04561 630.05025,973.66477 631.39157,971.51804 z "
     id="path911"
     sodipodi:nodetypes="csssssssss" />
  <path
     style="fill:#ff6b00;fill-rule:evenodd;stroke:#000000;stroke-width:1.2500000;stroke-linecap:round;stroke-linejoin:round;stroke-dashoffset:0.00000000;stroke-dasharray:none;"
     id="path912"
     d="M 638.01505,977.76111 C 638.68364,978.13530 639.14672,978.54264 639.50898,979.30711 C 639.79364,979.90800 639.89265,980.51682 640.10808,981.14005 C 640.34270,981.90245 640.40714,982.36686 640.96587,982.81101 C 641.46666,983.20910 641.95243,983.22692 642.71394,983.28064 C 643.10629,983.30833 643.94248,983.18684 643.71867,983.26687 L 642.61053,983.66295 C 642.29689,983.77507 640.99378,983.65691 640.35200,982.95976 C 639.89811,982.46671 639.70364,981.68531 639.50508,981.00018 C 639.10267,979.64588 638.68872,978.82465 637.93274,978.34872 C 637.29915,977.97856 636.62653,978.32513 636.79625,977.55234 C 636.79625,977.55234 637.45938,977.45010 638.01505,977.76111 z "
     sodipodi:nodetypes="csssssssssss" />
  <path
     style="fill:#ff6b00;fill-rule:evenodd;stroke:#000000;stroke-width:1.2500000;stroke-linecap:round;stroke-linejoin:round;stroke-dashoffset:0.00000000;stroke-dasharray:none;"
     d="M 626.17788,975.14420 C 625.07824,974.92096 623.19190,976.19283 619.51500,979.04002 C 614.93324,982.58796 614.09785,984.44183 614.25461,987.70569 C 615.56715,989.77424 617.44592,990.53231 623.76961,989.05476 C 627.45295,988.19407 630.70412,986.02270 631.00120,984.85623 C 631.56656,982.63691 627.45699,975.40387 626.17788,975.14420 z "
     id="path913"
     sodipodi:nodetypes="cscsss" />
  <path
     style="fill:#ff6b00;fill-rule:evenodd;stroke:#000000;stroke-width:1.2500000;stroke-linecap:round;stroke-linejoin:bevel;stroke-dashoffset:0.00000000;stroke-dasharray:none;"
     d="M 647.87272,471.45260 C 641.37201,466.83507 640.19718,465.71472 632.61926,465.88312 C 638.34785,464.81018 638.43833,464.92373 642.99242,466.74409 C 646.31726,468.91027 650.35266,472.44036 649.20844,471.47647 C 648.87850,471.53453 647.87272,471.45260 647.87272,471.45260 z "
     id="path944"
     sodipodi:nodetypes="ccccc" />
  <path
     style="fill:#ff6b00;fill-rule:evenodd;stroke:#000000;stroke-width:1.2500000;stroke-linecap:round;stroke-linejoin:bevel;stroke-dashoffset:0.00000000;stroke-dasharray:none;"
     d="M 650.65236,472.55670 C 649.56802,464.92287 649.58702,463.34288 644.14859,458.33514 C 648.97093,461.45793 648.94896,461.59873 650.77227,465.95516 C 651.47388,469.72252 651.64789,474.92654 651.57069,473.47692 C 651.29575,473.29446 650.65236,472.55670 650.65236,472.55670 z "
     id="path945"
     sodipodi:nodetypes="ccccc" />
  <path
     style="fill:#ff6b00;fill-rule:evenodd;stroke:#000000;stroke-width:1.2500000;stroke-linecap:round;stroke-linejoin:bevel;stroke-dashoffset:0.00000000;stroke-dasharray:none;"
     d="M 648.80701,471.09499 C 656.70293,472.89895 658.36207,473.04267 663.05813,478.68577 C 660.27609,473.81674 660.12617,473.82307 655.74340,471.65722 C 651.86373,470.60989 646.42323,469.91333 647.93577,470.13447 C 648.09903,470.41251 648.80701,471.09499 648.80701,471.09499 z "
     id="path946"
     sodipodi:nodetypes="ccccc" />
  <path
     style="fill:#ff6b00;fill-rule:evenodd;stroke:#000000;stroke-width:1.2500000;stroke-linecap:round;stroke-linejoin:bevel;stroke-dashoffset:0.00000000;stroke-dasharray:none;"
     d="M 641.92945,473.73809 C 634.35290,470.96340 632.79371,473.14665 625.54726,475.25570 C 630.75517,472.75107 630.98202,472.46766 635.62452,471.61093 C 639.79673,471.57709 644.29999,473.83661 642.92323,473.20274 C 642.62222,473.34339 641.92945,473.73809 641.92945,473.73809 z "
     id="path947"
     sodipodi:nodetypes="ccccc" />
  <path
     style="fill:#ff6b00;fill-rule:evenodd;stroke:#000000;stroke-width:1.2500000;stroke-linecap:round;stroke-linejoin:bevel;stroke-dashoffset:0.00000000;stroke-dasharray:none;"
     d="M 654.27097,465.70046 C 654.76118,461.74310 658.56040,459.47644 661.49921,458.87684 C 664.43802,458.27724 663.26250,458.15732 666.44893,456.24648 C 663.94530,458.85443 663.23747,459.08640 663.36754,460.02729 C 661.72180,459.18785 658.50286,460.42793 657.32733,462.22672 C 656.15181,464.02553 656.64454,465.08240 657.58495,466.28160 C 658.90055,467.33848 660.10859,467.26731 662.22453,466.42787 C 664.19040,465.37494 665.93369,462.78939 665.22837,461.35035 C 666.87410,462.30971 668.25976,460.21567 669.45278,458.91502 C 665.75607,462.90143 665.75362,465.38282 664.14040,466.69800 C 662.00194,468.58249 659.00558,469.10305 656.88964,468.62337 C 656.30188,467.06440 654.64614,465.48697 654.27097,465.70046 z "
     id="path948"
     sodipodi:nodetypes="cccccccccccc" />
  <path
     style="fill:#ff6b00;fill-rule:evenodd;stroke:#000000;stroke-width:1.2500000;stroke-linecap:round;stroke-linejoin:bevel;stroke-dashoffset:0.00000000;stroke-dasharray:none;"
     d="M 644.71644,478.27047 C 642.46540,485.67150 639.68912,485.52917 633.53627,489.72783 C 638.78870,487.30827 639.16387,487.30827 642.69050,484.31939 C 645.24169,481.18818 646.06707,476.42021 645.76693,477.84349 C 645.46679,477.98581 644.71644,478.27047 644.71644,478.27047 z "
     id="path949"
     sodipodi:nodetypes="ccccc" />
  <path
     style="fill:#ff6b00;fill-rule:evenodd;stroke:#000000;stroke-width:1.2500000;stroke-linecap:round;stroke-linejoin:bevel;stroke-dashoffset:0.00000000;stroke-dasharray:none;"
     d="M 649.74271,474.25557 C 650.95216,481.87248 651.43619,483.38442 647.69100,489.63457 C 651.40038,485.35756 651.33778,485.22821 651.80405,480.56202 C 651.36701,476.75887 649.99988,471.71626 650.35312,473.12853 C 650.14295,473.37663 649.74271,474.25557 649.74271,474.25557 z "
     id="path950"
     sodipodi:nodetypes="ccccc" />
  <rect
     style="fill:#0000ff;fill-opacity:0.75000000;fill-rule:evenodd;stroke:#000000;stroke-width:1.2500000;stroke-linecap:round;stroke-linejoin:round;stroke-dasharray:none;"
     id="rect951"
     width="0.00000000"
     height="0.00000000"
     x="586.08486"
     y="602.18793" />
  <path
     style="fill:#ff6b00;fill-rule:evenodd;stroke:#000000;stroke-width:1.2500000;stroke-linecap:round;stroke-linejoin:bevel;stroke-dashoffset:0.00000000;stroke-dasharray:none;"
     d="M 652.82138,466.89096 C 654.28015,465.51038 655.46345,464.75509 656.27401,464.71716 C 657.08457,464.67921 659.20050,466.50488 658.73052,467.31425 C 658.26053,468.12363 656.09658,469.62471 655.29416,469.83724 C 654.40221,468.12926 652.82138,466.89096 652.82138,466.89096 z "
     id="path952"
     sodipodi:nodetypes="ccccc" />
  <path
     style="fill:#ff6b00;fill-rule:evenodd;stroke:#000000;stroke-width:1.2500000;stroke-linecap:round;stroke-linejoin:bevel;stroke-dashoffset:0.00000000;stroke-dasharray:none;"
     d="M 647.00765,469.60909 C 642.02804,470.47955 639.11395,472.42551 636.68096,474.90022 C 635.15993,476.97674 633.99539,477.55039 635.26048,479.88802 C 637.78304,482.37194 640.65448,481.16166 643.02073,480.30233 C 645.48540,479.13928 647.89431,477.54426 650.64112,474.30238 C 648.67951,471.89948 647.00765,469.60909 647.00765,469.60909 z "
     id="path953"
     sodipodi:nodetypes="cccccc" />
  <path
     style="fill:#ff6b00;fill-rule:evenodd;stroke:#000000;stroke-width:1.2500000;stroke-linecap:round;stroke-linejoin:bevel;stroke-dashoffset:0.00000000;stroke-dasharray:none;"
     d="M 646.74238,469.65966 C 648.99342,467.52475 650.79426,466.38613 651.99481,466.38613 C 653.19536,466.38613 656.19675,469.51733 655.44640,470.79827 C 654.69606,472.07922 651.39453,474.35646 650.19398,474.64112 C 648.99342,471.79456 646.74238,469.65966 646.74238,469.65966 z "
     id="path954"
     sodipodi:nodetypes="ccccc" />
  <rect
     style="fill:#0000ff;fill-opacity:0.75000000;fill-rule:evenodd;stroke:#000000;stroke-width:1.2500000;stroke-linecap:round;stroke-linejoin:round;stroke-dasharray:none;"
     id="rect955"
     width="0.00000000"
     height="0.00000000"
     x="641.20452"
     y="650.56768" />
</svg>
