<?xml version="1.0" encoding="UTF-8" standalone="no"?>
<!DOCTYPE svg PUBLIC "-//W3C//DTD SVG 20010904//EN"
"http://www.w3.org/TR/2001/REC-SVG-20010904/DTD/svg10.dtd">
<!-- Created with Inkscape (http://www.inkscape.org/) -->
<svg
   id="svg1"
   sodipodi:version="0.32"
   inkscape:version="0.38cvs-040410.1009"
   width="210mm"
   height="297mm"
   sodipodi:docname="lucane.svg"
   xmlns="http://www.w3.org/2000/svg"
   xmlns:inkscape="http://www.inkscape.org/namespaces/inkscape"
   xmlns:sodipodi="http://sodipodi.sourceforge.net/DTD/sodipodi-0.dtd"
   xmlns:xlink="http://www.w3.org/1999/xlink"
   sodipodi:docbase="D:\Documents and Settings\Administrateur\Bureau\LUCANE\trunk\graphics\src">
  <defs
     id="defs3">
    <linearGradient
       id="linearGradient931">
      <stop
         style="stop-color:#ffeccb;stop-opacity:1.0000000;"
         offset="0.00000000"
         id="stop932" />
      <stop
         style="stop-color:#ffffff;stop-opacity:1.0000000;"
         offset="1.0000000"
         id="stop933" />
    </linearGradient>
    <linearGradient
       id="linearGradient831">
      <stop
         style="stop-color:#0098e6;stop-opacity:1.0000000;"
         offset="0.00000000"
         id="stop832" />
      <stop
         style="stop-color:#001d3d;stop-opacity:1.0000000;"
         offset="1.0000000"
         id="stop833" />
    </linearGradient>
    <radialGradient
       xlink:href="#linearGradient831"
       id="radialGradient834"
       cx="0.83333325"
       cy="0.56488556"
       r="1.1266057"
       fx="0.096774243"
       fy="0.17557257" />
    <linearGradient
       xlink:href="#linearGradient931"
       id="linearGradient991"
       x1="0.00000000"
       y1="0.50000000"
       x2="1.0000000"
       y2="0.50000000"
       gradientUnits="userSpaceOnUse" />
    <radialGradient
       xlink:href="#linearGradient931"
       id="radialGradient992"
       cx="0.25398734"
       cy="0.13111077"
       r="1.0546948"
       fx="0.24808057"
       fy="0.14302985"
       spreadMethod="pad"
       gradientUnits="objectBoundingBox"
       gradientTransform="scale(0.798584,1.252217)" />
    <radialGradient
       xlink:href="#linearGradient831"
       id="radialGradient993"
       cx="0.59139776"
       cy="0.58015275"
       r="0.76882631"
       fx="0.12946427"
       fy="0.52531654" />
    <linearGradient
       xlink:href="#linearGradient831"
       id="linearGradient929" />
  </defs>
  <sodipodi:namedview
     id="base"
     pagecolor="#ffffff"
     bordercolor="#666666"
     borderopacity="1.0"
     inkscape:pageopacity="0.0"
     inkscape:pageshadow="2"
     inkscape:zoom="1.4142136"
     inkscape:cx="328.39525"
     inkscape:cy="713.75108"
     inkscape:window-width="1280"
     inkscape:window-height="909"
     inkscape:window-x="-4"
     inkscape:window-y="-4" />
  <path
     style="fill:url(#radialGradient992);fill-opacity:0.75000000;fill-rule:evenodd;stroke:#000000;stroke-width:0.00000000;stroke-dasharray:none;"
     d="M 30.087095,517.54425 L 30.087095,1029.4496 L 833.46710,1029.4496 L 833.46710,517.54425 L 30.087095,517.54425 z "
     id="path930" />
  <path
     style="font-size:12.000000;fill:#cbc8cb;fill-opacity:0.66942149;fill-rule:evenodd;stroke:#b2b2b2;stroke-width:0.00000000;stroke-linecap:round;stroke-linejoin:round;stroke-dashoffset:0.00000000;font-family:Bitstream Vera Sans;"
     d="M 794.93392,975.13348 C 795.01617,974.64089 795.07812,974.18918 795.11963,973.77835 C 795.16121,973.36752 795.18200,972.94297 795.18200,972.50456 C 795.18200,970.34156 794.50650,968.68501 793.15550,967.53477 C 791.80450,966.38460 789.86025,965.80948 787.32275,965.80948 C 784.26284,965.80948 781.69188,966.63093 779.60987,968.27376 C 777.52779,969.91652 775.94908,972.20314 774.87367,975.13348 L 794.93392,975.13348 z M 783.60309,1005.2895 C 775.73775,1005.2895 769.66721,1003.5534 765.39154,1000.0814 C 761.11587,996.60940 758.97800,991.81144 758.97800,985.68735 C 758.97800,981.50395 759.67646,977.66251 761.07338,974.16293 C 762.47037,970.66335 764.48350,967.58748 767.11284,964.93539 C 769.63200,962.36548 772.78158,960.32876 776.56158,958.82502 C 780.34158,957.32135 784.49083,956.56948 789.00933,956.56948 C 795.88417,956.56948 801.06767,957.95835 804.55983,960.73602 C 808.05192,963.51376 809.79800,967.61198 809.79800,973.03089 C 809.79800,974.89114 809.61271,976.71072 809.24213,978.48955 C 808.87162,980.26845 808.38400,982.03375 807.77934,983.78545 L 773.42600,983.78545 C 773.42600,983.94825 773.42600,984.10445 773.42600,984.25405 C 773.42600,984.40375 773.42600,984.55985 773.42600,984.72265 C 773.42600,987.90235 774.55342,990.38914 776.80833,992.18284 C 779.06317,993.97664 782.51417,994.87344 787.16133,994.87344 C 790.40583,994.87344 793.47862,994.32664 796.37963,993.23284 C 799.28071,992.13914 801.80358,990.92194 803.94817,989.58144 L 805.59800,989.58144 L 802.84308,1001.4648 C 799.96517,1002.7257 796.93683,1003.6784 793.75792,1004.3229 C 790.57908,1004.9673 787.19409,1005.2895 783.60309,1005.2895 z M 751.75400,968.41747 C 751.75400,969.23647 751.69933,970.12414 751.58992,971.08048 C 751.48058,972.03689 751.30334,973.03439 751.05834,974.07298 L 744.18084,1004.0295 L 729.31158,1004.0295 L 734.47625,981.22745 C 734.85250,979.53525 735.14825,978.08865 735.36350,976.88768 C 735.57875,975.68676 735.68634,974.56781 735.68634,973.53097 C 735.68634,971.75647 735.23638,970.45993 734.33646,969.64135 C 733.43654,968.82277 731.78650,968.41348 729.38634,968.41348 C 728.21384,968.41348 726.86396,968.66597 725.33663,969.17081 C 723.80937,969.67572 722.09108,970.43298 720.18183,971.44273 L 712.68609,1004.0295 L 697.82600,1004.0295 L 708.47300,957.99748 L 723.33183,957.99748 L 722.11509,963.08347 C 725.14875,961.08756 727.91592,959.53097 730.41667,958.41356 C 732.91742,957.29622 735.67059,956.73748 738.67625,956.73748 C 742.80359,956.73748 746.01512,957.73477 748.31063,959.72935 C 750.60621,961.72393 751.75400,964.61997 751.75400,968.41747 z M 674.69450,982.27345 C 672.04675,982.49225 669.56462,982.75175 667.24804,983.05185 C 664.93146,983.35195 662.95987,983.78895 661.33324,984.36295 C 659.65062,984.96325 658.36809,985.80965 657.48565,986.90205 C 656.60322,987.99455 656.16199,989.44195 656.16199,991.24444 C 656.16199,992.82824 656.74956,993.94104 657.92468,994.58274 C 659.09981,995.22460 660.80693,995.54540 663.04606,995.54540 C 664.51081,995.54540 666.07946,995.21320 667.75204,994.54864 C 669.42462,993.88414 670.99367,993.03644 672.45933,992.00574 L 674.69450,982.27345 z M 670.81475,999.17190 C 669.88109,999.77390 668.75542,1000.4993 667.43767,1001.3480 C 666.11992,1002.1968 664.89800,1002.8674 663.77187,1003.3601 C 662.23449,1003.9893 660.79315,1004.4682 659.44784,1004.7967 C 658.10253,1005.1253 656.23506,1005.2895 653.84543,1005.2895 C 650.00156,1005.2895 646.86468,1004.2150 644.43481,1002.0659 C 642.00493,999.91690 640.78999,997.11740 640.78999,993.66734 C 640.78999,990.02644 641.65099,986.93965 643.37299,984.40705 C 645.09499,981.87425 647.65043,979.85495 651.03931,978.34915 C 654.21031,976.92548 657.98922,975.89893 662.37603,975.26935 C 666.76287,974.63977 671.51209,974.17448 676.62384,973.87348 C 676.65359,973.70898 676.71288,973.44172 676.80171,973.07156 C 676.89054,972.70147 676.93492,972.28364 676.93492,971.81814 C 676.93492,969.87564 676.03283,968.51456 674.22858,967.73497 C 672.42433,966.95531 669.73108,966.56548 666.14883,966.56548 C 663.71543,966.56548 661.02918,966.97498 658.09006,967.79398 C 655.15093,968.61298 652.94331,969.29548 651.46718,969.84148 L 650.11399,969.84148 L 652.28749,958.94647 C 654.01037,958.50981 656.67628,958.01848 660.28522,957.47248 C 663.89415,956.92648 667.48975,956.65348 671.07200,956.65348 C 678.29075,956.65348 683.58842,957.59701 686.96508,959.48393 C 690.34167,961.37085 692.03000,964.29706 692.03000,968.26256 C 692.03000,968.80947 691.98212,969.52039 691.88629,970.39539 C 691.79046,971.27039 691.66075,972.03598 691.49709,972.69223 L 684.30067,1004.0295 L 669.69783,1004.0295 L 670.81475,999.17190 z M 616.03756,1005.2895 C 612.89631,1005.2895 609.95303,1004.9000 607.20772,1004.1208 C 604.46240,1003.3415 602.06556,1002.1320 600.01718,1000.4923 C 598.02306,998.87880 596.46599,996.85560 595.34599,994.42264 C 594.22599,991.98974 593.66599,989.17375 593.66599,985.97475 C 593.66599,981.84735 594.45109,978.01356 596.02128,974.47331 C 597.59147,970.93306 599.79712,967.83689 602.63824,965.18473 C 605.42337,962.58773 608.82340,960.53064 612.83834,959.01339 C 616.85328,957.49614 621.19568,956.73748 625.86556,956.73748 C 628.67868,956.73748 631.47124,957.05227 634.24324,957.68185 C 637.01524,958.31143 639.58949,959.22822 641.96599,960.43222 L 638.85274,973.03348 L 636.76456,973.03348 C 635.15368,971.07348 633.33128,969.61748 631.29734,968.66548 C 629.26340,967.71348 626.97681,967.23748 624.43756,967.23748 C 619.79568,967.23748 616.06862,968.88927 613.25637,972.19285 C 610.44412,975.49643 609.03799,979.61525 609.03799,984.54935 C 609.03799,987.97675 609.90512,990.54024 611.63937,992.24004 C 613.37362,993.93964 616.07037,994.78944 619.72962,994.78944 C 622.56987,994.78944 625.15724,994.20764 627.49174,993.04384 C 629.82624,991.88014 631.82649,990.58594 633.49249,989.16145 L 635.58199,989.16145 L 632.46743,1001.7287 C 629.51781,1003.0105 626.92978,1003.9245 624.70334,1004.4705 C 622.47690,1005.0165 619.58831,1005.2895 616.03756,1005.2895 z M 589.05387,957.99748 L 578.37274,1004.0295 L 563.50999,1004.0295 L 564.69124,998.94350 C 563.21862,999.90080 561.78012,1000.7963 560.37574,1001.6302 C 558.97137,1002.4641 557.64224,1003.1269 556.38837,1003.6187 C 554.80637,1004.2724 553.36087,1004.7143 552.05187,1004.9444 C 550.74287,1005.1745 549.44787,1005.2895 548.16687,1005.2895 C 544.13049,1005.2895 540.94659,1004.3196 538.61515,1002.3797 C 536.28372,1000.4398 535.11799,997.57110 535.11799,993.77364 C 535.11799,992.73584 535.17268,991.77294 535.28206,990.88484 C 535.39143,989.99674 535.56906,989.01975 535.81493,987.95395 L 542.76593,957.99748 L 557.75074,957.99748 L 552.39574,980.79955 C 551.98012,982.54605 551.66862,984.04755 551.46124,985.30405 C 551.25387,986.56055 551.15018,987.62455 551.15018,988.49605 C 551.15018,990.29774 551.58593,991.60094 552.45743,992.40594 C 553.32893,993.21094 554.97612,993.61344 557.39899,993.61344 C 558.59687,993.61344 559.97872,993.35424 561.54453,992.83584 C 563.11034,992.31744 564.80543,991.56684 566.62981,990.58424 L 574.18981,957.99748 L 589.05387,957.99748 z M 523.80556,1004.0295 L 479.76199,1004.0295 L 493.85562,942.96148 L 509.68306,942.96148 L 498.32337,992.18544 L 526.54999,992.18544 L 523.80556,1004.0295 z "
     id="path934" />
  <path
     style="fill:#cbc8cb;fill-rule:evenodd;stroke:#b2b2b2;stroke-width:0.00000000;stroke-linecap:round;stroke-linejoin:round;stroke-dashoffset:0.00000000;stroke-dasharray:none;stroke-opacity:1.0000000;fill-opacity:0.66942149;"
     d="M 384.68750,548.28125 C 384.63580,548.28899 384.61170,548.38548 384.59380,548.59375 L 383.09380,565.93750 C 382.78230,569.54601 385.36200,587.06959 392.40630,593.37500 C 398.40780,598.74703 403.28260,602.49691 410.09380,605.34375 C 401.92300,616.52103 390.16290,637.33480 387.06250,644.87500 C 385.03610,649.80334 378.72680,664.35745 374.53130,675.68750 C 361.19150,679.66544 351.74520,687.93568 349.93750,693.31250 C 348.99270,696.12274 348.55610,698.61080 348.46880,700.93750 C 340.84170,692.59504 334.06720,686.95482 329.59380,686.18750 C 328.03430,685.92001 326.24970,685.99173 324.46880,686.06250 C 323.54480,685.44204 322.56830,684.73733 321.75000,684.28125 C 308.17200,676.27176 282.33050,665.31103 273.87500,660.62500 C 265.41950,655.93897 247.08571,644.77329 242.34375,630.00000 C 239.79826,621.25461 239.73858,617.32715 236.31250,611.50000 C 233.39550,606.53876 228.78030,599.09489 227.87500,599.03125 C 227.74567,599.02216 227.68039,599.14828 227.71875,599.46875 L 230.96875,618.09375 C 232.43796,623.23897 232.99033,640.94761 243.62500,650.46875 C 250.88740,656.71128 262.39300,666.51414 271.87500,671.53125 C 281.35700,676.54837 288.12040,679.36134 298.00000,683.96875 C 301.53400,685.61685 304.95750,687.84488 308.25000,690.03125 C 298.50320,693.73784 286.67190,699.80747 271.65630,708.78125 C 265.56090,707.45065 256.01030,706.90116 251.21880,707.37500 C 242.56505,707.78879 231.57394,711.56403 221.12500,713.40625 C 200.58463,716.94975 175.26769,721.22098 167.09375,720.21875 C 148.69394,718.01685 128.47117,705.09366 119.65625,701.71875 C 111.15523,698.46401 105.46776,695.83728 92.687500,696.62500 C 77.259860,697.54865 59.015800,718.40193 62.687500,716.43750 L 71.437500,711.75000 C 72.881050,710.97767 75.502440,710.16944 79.437500,707.75000 C 83.372560,705.33056 89.631410,705.81258 96.437500,705.90625 C 102.88374,705.99495 111.69956,708.45352 120.87500,713.06250 C 134.72673,719.57849 148.53308,728.04463 173.00000,729.78125 C 183.23458,730.49477 209.17196,725.02625 218.28125,723.81250 C 223.65961,723.09586 238.74866,722.34460 249.96880,722.34375 C 242.75005,726.92854 236.10474,731.04401 227.71875,736.53125 C 157.67344,782.36426 144.91673,806.30576 147.31250,848.46875 C 167.37881,875.19145 196.10610,884.99401 292.78130,865.90625 C 311.22110,862.26544 328.74070,856.72364 344.40630,850.50000 C 343.97890,853.67336 343.43540,856.74140 342.46880,859.40625 C 337.72490,872.48294 334.99840,883.05448 328.03130,895.06250 C 323.61500,902.67375 303.25680,931.49627 299.15630,939.06250 C 294.42000,947.80169 289.41010,957.46163 282.78130,964.84375 C 265.17820,984.39663 246.03396,991.30519 235.93750,992.81250 C 221.60078,994.95287 213.20745,993.38294 199.59375,993.65625 C 188.99135,993.86912 180.22781,996.61669 170.34375,1000.5938 C 161.98502,1003.9571 148.91145,1010.6710 149.53125,1010.5938 L 167.03125,1008.4375 C 171.95532,1007.8236 190.64730,1001.1764 197.25000,1001.3438 C 209.63547,1001.6576 234.84454,1003.2149 245.87500,1000.4063 C 263.24630,996.67908 283.65710,984.20750 292.12500,971.78125 C 298.94490,961.93148 315.50560,933.10212 323.18750,923.34375 C 329.12760,915.79802 340.45980,900.67580 344.28130,893.28125 C 352.26920,879.65902 354.94730,873.66712 360.06250,859.71875 C 362.59310,853.56950 368.07630,844.85695 371.00000,838.25000 C 376.73420,835.15835 381.60450,832.06522 386.03130,829.03125 C 389.94130,836.65348 397.92010,848.08395 398.06250,854.81250 C 398.51650,876.70650 396.23800,887.37847 389.25000,909.03125 C 386.82570,917.05031 387.13290,927.01655 387.09380,935.40625 C 387.05570,943.52023 385.76690,954.64894 382.00000,963.75000 C 377.33370,975.02376 373.51150,979.22810 365.34380,981.50000 C 356.43530,983.97787 353.67080,985.90743 346.06250,989.15625 C 337.56300,992.78562 322.01040,1012.5276 330.12500,1008.0000 L 351.50000,996.06250 C 356.17710,993.45288 372.31030,990.22651 378.43750,984.84375 C 383.81460,980.11995 391.27170,969.66453 393.06250,960.12500 C 394.54750,952.21404 396.41060,933.60565 396.46880,925.46875 C 396.53900,915.65409 404.46210,895.75630 406.46880,886.28125 C 408.39390,875.54569 412.16560,858.42192 404.46880,829.84375 C 404.04630,828.25080 402.74020,821.14340 400.71880,816.28125 C 401.93580,814.65350 402.88370,813.07888 403.31250,811.65625 C 405.38230,804.78989 403.26980,794.16992 398.71880,782.00000 C 401.88170,787.65951 404.99680,792.50036 408.34380,794.93750 C 409.51480,799.64966 416.37160,809.28084 423.65630,819.43750 C 433.34330,832.94352 441.19040,839.72064 451.12500,845.37500 C 463.94650,852.67243 484.06900,860.90733 493.43750,865.06250 C 503.06730,869.33356 533.05210,879.46270 544.87500,879.18750 C 556.42670,878.29363 570.85270,876.40455 580.50000,872.37500 C 598.75990,864.30613 630.53120,872.90625 630.53130,872.90625 C 644.40990,874.79290 610.64460,859.84138 599.25000,859.56250 C 587.23080,859.26835 585.36750,858.80616 572.96880,863.53125 C 558.61120,868.83439 539.93630,869.60868 529.40630,866.00000 C 518.87620,862.39129 510.37430,859.07262 497.53130,854.75000 C 484.68810,850.42738 457.61650,837.35654 445.59380,825.59375 C 441.55100,821.48985 431.94910,803.18042 428.06250,793.21875 C 446.08430,785.77697 478.71560,769.55869 466.00000,752.34375 C 465.80840,752.08441 465.56790,751.70153 465.37500,751.43750 C 483.05380,759.80610 491.51880,739.27848 497.09380,724.56250 C 500.47990,725.14016 504.86920,725.41548 509.28130,727.59375 C 520.83800,733.74138 527.16020,744.34873 533.31250,761.84375 C 536.34810,770.69422 539.34220,780.78700 546.28130,787.15625 C 556.09280,796.16215 576.01820,797.69818 580.81250,796.25000 L 597.75000,791.12500 C 601.17160,790.09149 588.37360,791.67012 582.37500,791.31250 C 570.73360,790.61851 563.31190,790.39225 555.65630,785.25000 C 547.11440,779.51248 546.11800,773.50510 542.53130,763.65625 C 539.23800,755.60511 537.72760,747.73141 533.37500,739.96875 C 527.83760,730.09313 520.78380,724.83417 510.56250,720.00000 C 506.98570,718.30834 503.21740,717.67098 499.93750,717.37500 C 500.62240,715.74316 501.27270,714.15614 501.90630,713.15625 C 501.96240,713.06767 501.95770,712.91468 502.00000,712.81250 C 512.98090,721.27295 524.89150,728.91945 536.25000,732.28125 C 558.65270,739.06249 597.98910,729.14230 630.56250,716.43750 C 663.13580,703.22373 698.66400,685.82072 713.81250,632.59375 C 685.92190,666.97625 665.58700,709.63604 617.81250,658.25000 C 624.83600,698.17471 590.79300,706.77865 585.71880,708.50000 C 562.50700,714.04590 535.83010,707.00176 518.18750,694.06250 C 523.28630,693.68296 527.16730,693.40696 525.09380,691.84375 C 523.79070,690.86134 522.09540,689.90737 520.62500,688.93750 C 528.40920,680.92782 535.75000,675.46875 535.75000,675.46875 C 526.60650,678.92775 520.25080,680.13000 514.90630,685.21875 C 511.61720,683.27318 508.11770,681.30558 504.59380,679.34375 C 504.46440,678.70965 504.31500,678.03816 504.15630,677.37500 C 521.37800,665.51395 538.03120,661.71874 538.03130,661.71875 C 527.54370,662.32380 525.10070,660.78351 514.84380,663.68750 C 512.43840,665.07262 507.23090,668.40260 502.59380,671.28125 C 498.21330,655.87167 492.02210,635.73021 512.34380,620.40625 C 559.39320,599.41985 595.20020,617.14328 623.12500,645.43750 C 605.07360,608.05760 642.72300,610.85144 676.68750,601.03125 C 633.12580,595.10664 636.63110,601.56720 601.34380,594.87500 C 566.56530,588.18278 525.05390,585.72219 479.87500,617.68750 C 468.04120,625.92692 461.63960,633.41313 458.62500,640.34375 C 457.66880,634.90183 458.66990,629.82035 456.12500,630.68750 C 455.20310,631.00162 454.11190,631.19707 453.09380,631.43750 C 451.62600,623.45118 450.43010,618.25014 442.68750,612.87500 C 435.69140,608.01814 429.71110,605.74636 422.96880,602.93750 C 424.90650,600.32865 426.73480,597.78207 428.09380,595.59375 C 431.83990,589.38032 439.28130,575.53125 439.28130,575.53125 C 440.07050,569.26442 433.32080,580.91562 429.90630,584.68750 C 423.29070,591.99524 422.23050,593.16477 415.46880,598.93750 C 415.34480,599.04329 415.16190,599.28483 415.03130,599.40625 C 409.56320,596.73558 402.41570,592.92615 398.06250,588.96875 C 393.60450,584.91600 390.93480,578.24503 390.18750,572.40625 C 389.78930,569.29531 385.46330,548.16515 384.68750,548.28125 z M 418.53130,608.71875 C 425.34250,611.63867 432.47140,615.78066 438.28130,619.62500 C 443.24360,622.90860 446.05760,627.11618 447.68750,632.40625 C 433.28850,634.23647 414.41010,632.40770 409.28130,639.34375 C 397.48760,655.29328 401.83260,667.88847 408.84380,677.96875 C 406.12470,676.21273 403.44840,675.00088 400.84380,674.46875 C 395.88840,673.45636 391.18900,673.36284 386.65630,673.65625 C 390.06850,664.63631 393.59820,653.87556 395.40630,649.34375 C 399.12330,640.02718 400.89550,636.10549 405.25000,627.06250 C 407.08290,623.25596 412.88690,615.99820 418.53130,608.71875 z "
     id="path990"
     sodipodi:stroke-cmyk="(0.00000000 0.00000000 0.00000000 0.30188680)" />
  <g
     id="g942"
     style="fill:url(#radialGradient834);stroke:#000000;stroke-opacity:1.0000000;stroke-width:1.2500000;stroke-dasharray:none;"
     transform="translate(25.00000,30.00000)">
    <path
       style="fill:url(#radialGradient834);fill-rule:evenodd;stroke:#000000;stroke-width:1.2500000;stroke-linecap:round;stroke-linejoin:round;stroke-dashoffset:0.00000000;stroke-opacity:1.0000000;stroke-dasharray:none;"
       d="M 460.70922,661.80290 C 458.42104,668.17164 470.40398,649.33677 474.63352,644.05401 C 480.42346,636.76981 487.30296,636.09920 497.73188,632.15394 C 497.73188,632.15394 476.64201,647.57140 468.00039,665.22185 L 460.70922,661.80290 z "
       id="path914" />
    <path
       style="fill:url(#radialGradient834);fill-rule:evenodd;stroke:#000000;stroke-width:1.2500000;stroke-linecap:round;stroke-linejoin:round;stroke-dashoffset:0.00000000;stroke-opacity:1.0000000;stroke-dasharray:none;"
       d="M 454.71749,632.49220 C 450.26476,637.58825 470.96179,623.73966 476.82629,620.36265 C 487.08322,617.45867 489.51415,618.98781 500.00173,618.38276 C 500.00173,618.38276 479.35431,622.99988 460.26020,638.33418 L 454.71749,632.49220 z "
       id="path915" />
    <path
       style="fill:url(#radialGradient834);fill-rule:evenodd;stroke:#000000;stroke-width:1.2500000;stroke-linecap:round;stroke-linejoin:round;stroke-dashoffset:0.00000000;stroke-opacity:1.0000000;stroke-dasharray:none;"
       d="M 441.85244,574.35117 C 487.03134,542.38587 528.54524,544.87135 563.32374,551.56357 C 598.61114,558.25578 595.12604,551.78510 638.68774,557.70971 C 604.72324,567.52989 567.05544,564.74023 585.10684,602.12013 C 557.18204,573.82591 521.37804,556.09953 474.32864,577.08593 C 449.41224,595.87465 464.38204,622.00531 466.96054,637.63182 C 481.24524,658.34799 517.50434,672.39046 547.71524,665.17226 C 552.78954,663.45091 586.83674,654.86240 579.81324,614.93769 C 627.58764,666.32374 647.91244,623.64648 675.80304,589.26398 C 660.65454,642.49096 625.11104,659.89416 592.53774,673.10793 C 559.96444,685.81273 520.64774,695.72342 498.24504,688.94218 C 475.33334,682.16095 450.09734,658.04416 435.01304,644.68164 C 429.59904,626.73844 396.67344,605.80750 441.85244,574.35117 z "
       id="path916" />
    <path
       style="fill:url(#radialGradient834);fill-rule:evenodd;stroke:#000000;stroke-width:1.2500000;stroke-linecap:round;stroke-linejoin:round;stroke-dashoffset:0.00000000;stroke-opacity:1.0000000;stroke-dasharray:none;"
       d="M 388.58646,743.33924 C 385.90007,744.17109 402.04199,776.65434 407.57133,782.26736 C 419.59409,794.03014 446.68009,807.10782 459.52324,811.43044 C 472.36639,815.75306 480.85789,819.05247 491.38794,822.66118 C 501.91799,826.26989 520.60140,825.50899 534.95894,820.20585 C 547.35776,815.48074 549.20728,815.92811 561.22644,816.22226 C 572.62098,816.50113 606.38421,831.47077 592.50554,829.58412 C 592.50554,829.58412 560.74582,820.98785 542.48594,829.05672 C 532.83866,833.08627 518.41504,834.96090 506.86334,835.85477 C 495.04047,836.12995 465.05813,826.01809 455.42834,821.74703 C 446.05983,817.59186 425.92272,809.35188 413.10124,802.05445 C 403.16662,796.40010 395.33049,789.62802 385.64344,776.12200 C 375.95639,762.61597 367.00100,750.02330 371.20994,748.71998 L 388.58646,743.33924 z "
       id="path917" />
    <path
       style="fill:url(#radialGradient834);fill-rule:evenodd;stroke:#000000;stroke-width:1.2500000;stroke-linecap:round;stroke-linejoin:round;stroke-dashoffset:0.00000000;stroke-opacity:1.0000000;stroke-dasharray:none;"
       d="M 333.42694,646.38701 C 328.68734,647.78872 345.58433,609.94298 349.03474,601.55142 C 352.92123,592.09928 370.54875,561.50727 377.45494,555.61117 C 384.21665,549.83843 385.26051,548.65970 391.87604,541.35196 C 395.29061,537.58010 402.04631,525.92267 401.25704,532.18950 C 401.25704,532.18950 393.81562,546.05495 390.06946,552.26838 C 384.04922,561.96257 370.25492,577.48870 367.24734,583.73466 C 362.89292,592.77766 361.10994,596.68592 357.39294,606.00249 C 354.17534,614.06731 345.40355,642.84498 341.80506,643.90922 L 333.42694,646.38701 z "
       id="path918" />
    <path
       style="fill:url(#radialGradient834);fill-rule:evenodd;stroke:#000000;stroke-width:1.2500000;stroke-linecap:round;stroke-linejoin:round;stroke-dashoffset:0.00000000;stroke-opacity:1.0000000;stroke-dasharray:none;"
       d="M 311.93770,649.97436 C 314.78916,641.49307 336.49603,625.76181 362.83404,631.14269 C 383.82973,635.43212 409.22472,683.62039 427.98144,709.01414 C 442.30732,728.40920 397.96311,747.21772 383.19264,752.78504 C 364.88041,759.68733 361.99088,736.55629 341.39394,703.98813 C 323.60888,675.86615 304.86440,671.01298 311.93770,649.97436 z "
       id="path919" />
    <path
       style="fill:url(#radialGradient834);fill-rule:evenodd;stroke:#000000;stroke-width:1.2500000;stroke-linecap:round;stroke-linejoin:round;stroke-dashoffset:0.00000000;stroke-opacity:1.0000000;stroke-dasharray:none;"
       d="M 331.94364,785.71506 C 341.20802,785.51034 326.61419,805.30312 322.04594,816.40381 C 316.93078,830.35219 314.26627,836.31812 306.27828,849.94035 C 302.45678,857.33487 291.12311,872.48334 285.18299,880.02907 C 277.50106,889.78744 260.91895,918.60864 254.09905,928.45841 C 245.63118,940.88464 225.22944,953.36698 207.85818,957.09415 C 196.82770,959.90279 171.61143,958.32727 159.22596,958.01340 C 152.62326,957.84607 133.92590,964.48806 129.00183,965.10197 L 111.50924,967.28290 C 110.88943,967.36018 123.97629,960.62312 132.33502,957.25980 C 142.21909,953.28272 150.99081,950.52907 161.59321,950.31620 C 175.20691,950.04287 183.58047,951.63857 197.91719,949.49820 C 208.01364,947.99087 227.15524,941.05733 244.75832,921.50445 C 251.38726,914.12235 256.41913,904.46904 261.15538,895.72985 C 265.25593,888.16364 285.59627,859.33450 290.01249,851.72325 C 296.97984,839.71520 299.70497,829.16887 304.44882,816.09218 C 307.27572,808.29967 306.90593,797.29413 308.54924,789.15188 C 308.61145,788.84364 307.55367,786.25401 308.91084,786.22402 L 331.94364,785.71506 z "
       id="path920" />
    <path
       style="fill:url(#radialGradient834);fill-rule:evenodd;stroke:#000000;stroke-width:1.2500000;stroke-linecap:round;stroke-linejoin:round;stroke-dashoffset:0.00000000;stroke-opacity:1.0000000;stroke-dasharray:none;"
       d="M 357.26854,768.92749 C 362.40489,764.49864 365.73496,783.76881 366.46257,786.51216 C 374.15946,815.09033 370.37173,832.20830 368.44657,842.94386 C 366.44001,852.41891 358.53871,872.33844 358.46851,882.15310 C 358.41031,890.28999 356.53553,908.87506 355.05049,916.78602 C 353.25973,926.32556 345.79584,936.80149 340.41873,941.52529 C 334.29154,946.90804 318.16383,950.14118 313.48669,952.75080 L 292.11890,964.67300 C 284.00428,969.20057 299.54534,949.45587 308.04483,945.82650 C 315.65314,942.57767 318.40671,940.64657 327.31514,938.16870 C 335.48301,935.89682 339.31609,931.70711 343.98234,920.43335 C 347.74929,911.33231 349.03069,900.19263 349.06874,892.07865 C 349.10809,883.68893 348.82536,873.73401 351.24964,865.71495 C 358.23755,844.06214 360.49671,833.36521 360.04274,811.47121 C 359.83619,801.71103 342.62493,781.55404 346.24220,778.43502 L 357.26854,768.92749 z "
       id="path921" />
    <path
       style="fill:url(#radialGradient834);fill-rule:evenodd;stroke:#000000;stroke-width:1.2500000;stroke-linecap:round;stroke-linejoin:round;stroke-dashoffset:0.00000000;stroke-opacity:1.0000000;stroke-dasharray:none;"
       d="M 224.50180,680.51196 C 228.13867,677.58170 189.38559,679.27579 180.27631,680.48956 C 171.16703,681.70333 145.23485,687.17603 135.00027,686.46251 C 110.53333,684.72592 96.706470,676.25305 82.854740,669.73706 C 73.679310,665.12810 64.883305,662.68252 58.437061,662.59382 C 51.630995,662.50016 45.365484,661.99101 41.430425,664.41045 C 37.495374,666.82989 34.868188,667.65052 33.424641,668.42285 L 24.674228,673.10454 C 21.002504,675.06900 39.237522,654.21142 54.665161,653.28777 C 67.445435,652.50005 73.144220,655.15294 81.645240,658.40768 C 90.460130,661.78258 110.68583,674.69911 129.08564,676.90101 C 137.25958,677.90325 162.57141,673.62451 183.11178,670.08101 C 193.56070,668.23879 204.53662,664.45152 213.19008,664.03773 C 221.29356,663.23638 243.30324,665.36343 238.48933,669.24205 L 224.50180,680.51196 z "
       id="path922" />
    <path
       style="fill:url(#radialGradient834);fill-rule:evenodd;stroke:#000000;stroke-width:1.2500000;stroke-linecap:round;stroke-linejoin:round;stroke-dashoffset:0.00000000;stroke-opacity:1.0000000;stroke-dasharray:none;"
       d="M 284.37256,654.16288 C 279.72121,654.51591 269.85525,645.25247 259.97563,640.64505 C 250.09601,636.03763 243.34173,633.21737 233.85977,628.20025 C 224.37782,623.18313 212.88755,613.37542 205.62515,607.13289 C 194.99046,597.61175 194.42035,579.89729 192.95114,574.75207 L 189.70263,556.15347 C 189.39579,553.58968 194.96138,562.49038 198.29509,568.16037 C 201.72119,573.98751 201.78491,577.91749 204.33040,586.66288 C 209.07235,601.43618 227.39424,612.61238 235.84977,617.29841 C 244.30531,621.98445 270.15459,632.94743 283.73259,640.95692 C 289.72910,644.29901 299.66789,653.00197 297.32866,653.17952 L 284.37256,654.16288 z "
       id="path923" />
    <path
       style="fill:url(#radialGradient834);fill-rule:evenodd;stroke:#000000;stroke-width:1.2500000;stroke-linecap:round;stroke-linejoin:round;stroke-dashoffset:0.00000000;stroke-opacity:1.0000000;stroke-dasharray:none;"
       d="M 410.82964,593.77360 C 409.53458,586.18105 406.63566,580.49555 400.27891,576.28930 C 393.04766,571.50440 383.74166,566.16517 375.59464,563.43399 C 366.71396,560.45686 361.40392,556.34157 354.39014,550.06351 C 347.34582,543.75811 344.77019,526.21300 345.08164,522.60449 L 346.57870,505.25952 C 346.86631,501.92721 351.75620,525.75205 352.18094,529.07039 C 352.92830,534.90917 355.58424,541.58150 360.04224,545.63425 C 364.64214,549.81600 372.47994,553.95688 378.02824,556.62505 C 388.47544,561.64908 395.31839,563.06626 404.67554,569.56225 C 413.99349,576.03103 413.78345,581.94864 416.04144,593.19304 C 416.04144,593.19304 411.53868,597.93048 410.82964,593.77360 z "
       id="path924" />
    <path
       style="fill:url(#radialGradient834);fill-rule:evenodd;stroke:#000000;stroke-width:1.2500000;stroke-linecap:round;stroke-linejoin:round;stroke-dashoffset:0.00000000;stroke-opacity:1.0000000;stroke-dasharray:none;"
       d="M 371.27454,596.02421 C 377.48925,587.61956 403.97519,592.18446 418.09924,587.37182 C 421.15269,586.33138 418.91658,593.81925 421.33994,600.26789 C 423.74378,606.66462 435.76984,615.35290 441.98874,620.49423 C 454.42654,630.77688 474.85088,639.30364 487.06384,648.51109 C 491.13768,651.58239 472.38998,649.64636 466.10084,653.40191 C 460.11118,656.97862 465.70210,666.98936 463.90594,669.82394 C 457.55870,679.84070 449.60304,726.91390 420.64404,703.92453 C 391.58114,680.85267 393.70120,667.16629 385.46194,653.09176 C 378.73150,641.59465 350.76865,623.75600 371.27454,596.02421 z "
       id="path925" />
    <path
       style="fill:url(#radialGradient834);fill-rule:evenodd;stroke:#000000;stroke-width:1.2500000;stroke-linecap:round;stroke-linejoin:round;stroke-dashoffset:0.00000000;stroke-opacity:1.0000000;stroke-dasharray:none;"
       d="M 472.53284,676.67396 C 482.75411,681.50814 489.83342,686.76977 495.37080,696.64539 C 499.72342,704.40806 501.23686,712.27287 504.53014,720.32401 C 508.11681,730.17284 509.10238,736.17270 517.64424,741.91022 C 525.29988,747.05248 532.72643,747.28279 544.36784,747.97678 C 550.36643,748.33438 563.14962,746.76537 559.72804,747.79888 L 542.78701,752.91600 C 537.99271,754.36415 518.07068,752.83736 508.25913,743.83146 C 501.32008,737.46219 498.34708,727.36777 495.31144,718.51730 C 489.15921,701.02227 482.83122,690.41290 471.27444,684.26527 C 461.58750,679.48274 451.30524,683.95984 453.89934,673.97666 C 453.89934,673.97666 464.03741,672.65601 472.53284,676.67396 z "
       id="path926" />
    <path
       style="fill:url(#radialGradient834);fill-rule:evenodd;stroke:#000000;stroke-width:1.2500000;stroke-linecap:round;stroke-linejoin:round;stroke-dashoffset:0.00000000;stroke-opacity:1.0000000;stroke-dasharray:none;"
       d="M 291.56836,642.86806 C 274.75711,639.98445 245.91939,656.41450 189.70808,693.19545 C 119.66277,739.02846 106.89222,762.97772 109.28799,805.14071 C 129.35428,831.86340 158.07625,841.65601 254.75120,822.56825 C 311.06164,811.45016 360.76429,783.39935 365.30674,768.33036 C 373.94899,739.66083 311.12358,646.22233 291.56836,642.86806 z "
       id="path927" />
  </g>
  <path
     style="font-size:12.000000;fill:#0072ad;stroke:#000000;stroke-width:1.2500000;stroke-linecap:round;stroke-linejoin:round;stroke-dashoffset:0.00000000;font-family:Bitstream Vera Sans;"
     d="M 787.05869,968.77935 C 787.14094,968.28676 787.20289,967.83505 787.24440,967.42422 C 787.28598,967.01339 787.30677,966.58884 787.30677,966.15043 C 787.30677,963.98743 786.63127,962.33088 785.28027,961.18064 C 783.92927,960.03047 781.98502,959.45535 779.44752,959.45535 C 776.38761,959.45535 773.81665,960.27680 771.73464,961.91963 C 769.65256,963.56239 768.07385,965.84901 766.99844,968.77935 L 787.05869,968.77935 z M 775.72786,998.93535 C 767.86252,998.93535 761.79198,997.19931 757.51631,993.72731 C 753.24064,990.25531 751.10277,985.45731 751.10277,979.33322 C 751.10277,975.14982 751.80123,971.30838 753.19815,967.80880 C 754.59514,964.30922 756.60827,961.23335 759.23761,958.58126 C 761.75677,956.01135 764.90635,953.97463 768.68635,952.47089 C 772.46635,950.96722 776.61560,950.21535 781.13410,950.21535 C 788.00894,950.21535 793.19244,951.60422 796.68460,954.38189 C 800.17669,957.15963 801.92277,961.25785 801.92277,966.67676 C 801.92277,968.53701 801.73748,970.35659 801.36690,972.13542 C 800.99639,973.91432 800.50877,975.67962 799.90411,977.43132 L 765.55077,977.43132 C 765.55077,977.59412 765.55077,977.75032 765.55077,977.89992 C 765.55077,978.04962 765.55077,978.20572 765.55077,978.36852 C 765.55077,981.54822 766.67819,984.03501 768.93310,985.82871 C 771.18794,987.62251 774.63894,988.51931 779.28610,988.51931 C 782.53060,988.51931 785.60339,987.97251 788.50440,986.87871 C 791.40548,985.78501 793.92835,984.56781 796.07294,983.22731 L 797.72277,983.22731 L 794.96785,995.11071 C 792.08994,996.37161 789.06160,997.32431 785.88269,997.96875 C 782.70385,998.61315 779.31886,998.93535 775.72786,998.93535 z M 743.87877,962.06334 C 743.87877,962.88234 743.82410,963.77001 743.71469,964.72635 C 743.60535,965.68276 743.42811,966.68026 743.18311,967.71885 L 736.30561,997.67535 L 721.43635,997.67535 L 726.60102,974.87332 C 726.97727,973.18112 727.27302,971.73452 727.48827,970.53355 C 727.70352,969.33263 727.81111,968.21368 727.81111,967.17684 C 727.81111,965.40234 727.36115,964.10580 726.46123,963.28722 C 725.56131,962.46864 723.91127,962.05935 721.51111,962.05935 C 720.33861,962.05935 718.98873,962.31184 717.46140,962.81668 C 715.93414,963.32159 714.21585,964.07885 712.30660,965.08860 L 704.81086,997.67535 L 689.95077,997.67535 L 700.59777,951.64335 L 715.45660,951.64335 L 714.23986,956.72934 C 717.27352,954.73343 720.04069,953.17684 722.54144,952.05943 C 725.04219,950.94209 727.79536,950.38335 730.80102,950.38335 C 734.92836,950.38335 738.13989,951.38064 740.43540,953.37522 C 742.73098,955.36980 743.87877,958.26584 743.87877,962.06334 z M 666.81927,975.91932 C 664.17152,976.13812 661.68939,976.39762 659.37281,976.69772 C 657.05623,976.99782 655.08464,977.43482 653.45801,978.00882 C 651.77539,978.60912 650.49286,979.45552 649.61042,980.54792 C 648.72799,981.64042 648.28676,983.08782 648.28676,984.89031 C 648.28676,986.47411 648.87433,987.58691 650.04945,988.22861 C 651.22458,988.87051 652.93170,989.19131 655.17083,989.19131 C 656.63558,989.19131 658.20423,988.85911 659.87681,988.19451 C 661.54939,987.53001 663.11844,986.68231 664.58410,985.65161 L 666.81927,975.91932 z M 662.93952,992.81781 C 662.00586,993.41981 660.88019,994.14521 659.56244,994.99391 C 658.24469,995.84271 657.02277,996.51331 655.89664,997.00601 C 654.35926,997.63515 652.91792,998.11405 651.57261,998.44255 C 650.22730,998.77115 648.35983,998.93535 645.97020,998.93535 C 642.12633,998.93535 638.98945,997.86085 636.55958,995.71181 C 634.12970,993.56281 632.91476,990.76331 632.91476,987.31321 C 632.91476,983.67231 633.77576,980.58552 635.49776,978.05292 C 637.21976,975.52012 639.77520,973.50082 643.16408,971.99502 C 646.33508,970.57135 650.11399,969.54480 654.50080,968.91522 C 658.88764,968.28564 663.63686,967.82035 668.74861,967.51935 C 668.77836,967.35485 668.83765,967.08759 668.92648,966.71743 C 669.01531,966.34734 669.05969,965.92951 669.05969,965.46401 C 669.05969,963.52151 668.15760,962.16043 666.35335,961.38084 C 664.54910,960.60118 661.85585,960.21135 658.27360,960.21135 C 655.84020,960.21135 653.15395,960.62085 650.21483,961.43985 C 647.27570,962.25885 645.06808,962.94135 643.59195,963.48735 L 642.23876,963.48735 L 644.41226,952.59234 C 646.13514,952.15568 648.80105,951.66435 652.40999,951.11835 C 656.01892,950.57235 659.61452,950.29935 663.19677,950.29935 C 670.41552,950.29935 675.71319,951.24288 679.08985,953.12980 C 682.46644,955.01672 684.15477,957.94293 684.15477,961.90843 C 684.15477,962.45534 684.10689,963.16626 684.01106,964.04126 C 683.91523,964.91626 683.78552,965.68185 683.62186,966.33810 L 676.42544,997.67535 L 661.82260,997.67535 L 662.93952,992.81781 z M 608.16233,998.93535 C 605.02108,998.93535 602.07780,998.54585 599.33249,997.76665 C 596.58717,996.98741 594.19033,995.77791 592.14195,994.13821 C 590.14783,992.52471 588.59076,990.50151 587.47076,988.06851 C 586.35076,985.63561 585.79076,982.81962 585.79076,979.62062 C 585.79076,975.49322 586.57586,971.65943 588.14605,968.11918 C 589.71624,964.57893 591.92189,961.48276 594.76301,958.83060 C 597.54814,956.23360 600.94817,954.17651 604.96311,952.65926 C 608.97805,951.14201 613.32045,950.38335 617.99033,950.38335 C 620.80345,950.38335 623.59601,950.69814 626.36801,951.32772 C 629.14001,951.95730 631.71426,952.87409 634.09076,954.07809 L 630.97751,966.67935 L 628.88933,966.67935 C 627.27845,964.71935 625.45605,963.26335 623.42211,962.31135 C 621.38817,961.35935 619.10158,960.88335 616.56233,960.88335 C 611.92045,960.88335 608.19339,962.53514 605.38114,965.83872 C 602.56889,969.14230 601.16276,973.26112 601.16276,978.19522 C 601.16276,981.62262 602.02989,984.18611 603.76414,985.88591 C 605.49839,987.58551 608.19514,988.43531 611.85439,988.43531 C 614.69464,988.43531 617.28201,987.85351 619.61651,986.68971 C 621.95101,985.52601 623.95126,984.23181 625.61726,982.80732 L 627.70676,982.80732 L 624.59220,995.37461 C 621.64258,996.65641 619.05455,997.57035 616.82811,998.11635 C 614.60167,998.66235 611.71308,998.93535 608.16233,998.93535 z M 581.17864,951.64335 L 570.49751,997.67535 L 555.63476,997.67535 L 556.81601,992.58941 C 555.34339,993.54671 553.90489,994.44221 552.50051,995.27611 C 551.09614,996.11001 549.76701,996.77281 548.51314,997.26461 C 546.93114,997.91825 545.48564,998.36015 544.17664,998.59025 C 542.86764,998.82035 541.57264,998.93535 540.29164,998.93535 C 536.25526,998.93535 533.07136,997.96545 530.73992,996.02561 C 528.40849,994.08571 527.24276,991.21701 527.24276,987.41951 C 527.24276,986.38171 527.29745,985.41881 527.40683,984.53071 C 527.51620,983.64261 527.69383,982.66562 527.93970,981.59982 L 534.89070,951.64335 L 549.87551,951.64335 L 544.52051,974.44542 C 544.10489,976.19192 543.79339,977.69342 543.58601,978.94992 C 543.37864,980.20642 543.27495,981.27042 543.27495,982.14192 C 543.27495,983.94361 543.71070,985.24681 544.58220,986.05181 C 545.45370,986.85681 547.10089,987.25931 549.52376,987.25931 C 550.72164,987.25931 552.10349,987.00011 553.66930,986.48171 C 555.23511,985.96331 556.93020,985.21271 558.75458,984.23011 L 566.31458,951.64335 L 581.17864,951.64335 z M 515.93033,997.67535 L 471.88676,997.67535 L 485.98039,936.60735 L 501.80783,936.60735 L 490.44814,985.83131 L 518.67476,985.83131 L 515.93033,997.67535 z "
     id="path928" />
  <g
     id="g870"
     style="fill:url(#radialGradient834);stroke:#000000;stroke-opacity:1.0000000;stroke-width:1.2500000;stroke-dasharray:none;"
     transform="translate(19.46325,-603.8727)">
    <path
       style="fill:url(#radialGradient834);fill-rule:evenodd;stroke:#000000;stroke-width:1.2500000;stroke-linecap:round;stroke-linejoin:round;stroke-dashoffset:0.00000000;stroke-opacity:1.0000000;stroke-dasharray:none;"
       d="M 460.70922,661.80290 C 458.42104,668.17164 470.40398,649.33677 474.63352,644.05401 C 480.42346,636.76981 487.30296,636.09920 497.73188,632.15394 C 497.73188,632.15394 476.64201,647.57140 468.00039,665.22185 L 460.70922,661.80290 z "
       id="path871" />
    <path
       style="fill:url(#radialGradient834);fill-rule:evenodd;stroke:#000000;stroke-width:1.2500000;stroke-linecap:round;stroke-linejoin:round;stroke-dashoffset:0.00000000;stroke-opacity:1.0000000;stroke-dasharray:none;"
       d="M 454.71749,632.49220 C 450.26476,637.58825 470.96179,623.73966 476.82629,620.36265 C 487.08322,617.45867 489.51415,618.98781 500.00173,618.38276 C 500.00173,618.38276 479.35431,622.99988 460.26020,638.33418 L 454.71749,632.49220 z "
       id="path872" />
    <path
       style="fill:url(#radialGradient834);fill-rule:evenodd;stroke:#000000;stroke-width:1.2500000;stroke-linecap:round;stroke-linejoin:round;stroke-dashoffset:0.00000000;stroke-opacity:1.0000000;stroke-dasharray:none;"
       d="M 441.85244,574.35117 C 487.03134,542.38587 528.54524,544.87135 563.32374,551.56357 C 598.61114,558.25578 595.12604,551.78510 638.68774,557.70971 C 604.72324,567.52989 567.05544,564.74023 585.10684,602.12013 C 557.18204,573.82591 521.37804,556.09953 474.32864,577.08593 C 449.41224,595.87465 464.38204,622.00531 466.96054,637.63182 C 481.24524,658.34799 517.50434,672.39046 547.71524,665.17226 C 552.78954,663.45091 586.83674,654.86240 579.81324,614.93769 C 627.58764,666.32374 647.91244,623.64648 675.80304,589.26398 C 660.65454,642.49096 625.11104,659.89416 592.53774,673.10793 C 559.96444,685.81273 520.64774,695.72342 498.24504,688.94218 C 475.33334,682.16095 450.09734,658.04416 435.01304,644.68164 C 429.59904,626.73844 396.67344,605.80750 441.85244,574.35117 z "
       id="path873" />
    <path
       style="fill:url(#radialGradient834);fill-rule:evenodd;stroke:#000000;stroke-width:1.2500000;stroke-linecap:round;stroke-linejoin:round;stroke-dashoffset:0.00000000;stroke-opacity:1.0000000;stroke-dasharray:none;"
       d="M 388.58646,743.33924 C 385.90007,744.17109 402.04199,776.65434 407.57133,782.26736 C 419.59409,794.03014 446.68009,807.10782 459.52324,811.43044 C 472.36639,815.75306 480.85789,819.05247 491.38794,822.66118 C 501.91799,826.26989 520.60140,825.50899 534.95894,820.20585 C 547.35776,815.48074 549.20728,815.92811 561.22644,816.22226 C 572.62098,816.50113 606.38421,831.47077 592.50554,829.58412 C 592.50554,829.58412 560.74582,820.98785 542.48594,829.05672 C 532.83866,833.08627 518.41504,834.96090 506.86334,835.85477 C 495.04047,836.12995 465.05813,826.01809 455.42834,821.74703 C 446.05983,817.59186 425.92272,809.35188 413.10124,802.05445 C 403.16662,796.40010 395.33049,789.62802 385.64344,776.12200 C 375.95639,762.61597 367.00100,750.02330 371.20994,748.71998 L 388.58646,743.33924 z "
       id="path874" />
    <path
       style="fill:url(#radialGradient834);fill-rule:evenodd;stroke:#000000;stroke-width:1.2500000;stroke-linecap:round;stroke-linejoin:round;stroke-dashoffset:0.00000000;stroke-opacity:1.0000000;stroke-dasharray:none;"
       d="M 333.42694,646.38701 C 328.68734,647.78872 345.58433,609.94298 349.03474,601.55142 C 352.92123,592.09928 370.54875,561.50727 377.45494,555.61117 C 384.21665,549.83843 385.26051,548.65970 391.87604,541.35196 C 395.29061,537.58010 402.04631,525.92267 401.25704,532.18950 C 401.25704,532.18950 393.81562,546.05495 390.06946,552.26838 C 384.04922,561.96257 370.25492,577.48870 367.24734,583.73466 C 362.89292,592.77766 361.10994,596.68592 357.39294,606.00249 C 354.17534,614.06731 345.40355,642.84498 341.80506,643.90922 L 333.42694,646.38701 z "
       id="path875" />
    <path
       style="fill:url(#radialGradient834);fill-rule:evenodd;stroke:#000000;stroke-width:1.2500000;stroke-linecap:round;stroke-linejoin:round;stroke-dashoffset:0.00000000;stroke-opacity:1.0000000;stroke-dasharray:none;"
       d="M 311.93770,649.97436 C 314.78916,641.49307 336.49603,625.76181 362.83404,631.14269 C 383.82973,635.43212 409.22472,683.62039 427.98144,709.01414 C 442.30732,728.40920 397.96311,747.21772 383.19264,752.78504 C 364.88041,759.68733 361.99088,736.55629 341.39394,703.98813 C 323.60888,675.86615 304.86440,671.01298 311.93770,649.97436 z "
       id="path876" />
    <path
       style="fill:url(#radialGradient834);fill-rule:evenodd;stroke:#000000;stroke-width:1.2500000;stroke-linecap:round;stroke-linejoin:round;stroke-dashoffset:0.00000000;stroke-opacity:1.0000000;stroke-dasharray:none;"
       d="M 331.94364,785.71506 C 341.20802,785.51034 326.61419,805.30312 322.04594,816.40381 C 316.93078,830.35219 314.26627,836.31812 306.27828,849.94035 C 302.45678,857.33487 291.12311,872.48334 285.18299,880.02907 C 277.50106,889.78744 260.91895,918.60864 254.09905,928.45841 C 245.63118,940.88464 225.22944,953.36698 207.85818,957.09415 C 196.82770,959.90279 171.61143,958.32727 159.22596,958.01340 C 152.62326,957.84607 133.92590,964.48806 129.00183,965.10197 L 111.50924,967.28290 C 110.88943,967.36018 123.97629,960.62312 132.33502,957.25980 C 142.21909,953.28272 150.99081,950.52907 161.59321,950.31620 C 175.20691,950.04287 183.58047,951.63857 197.91719,949.49820 C 208.01364,947.99087 227.15524,941.05733 244.75832,921.50445 C 251.38726,914.12235 256.41913,904.46904 261.15538,895.72985 C 265.25593,888.16364 285.59627,859.33450 290.01249,851.72325 C 296.97984,839.71520 299.70497,829.16887 304.44882,816.09218 C 307.27572,808.29967 306.90593,797.29413 308.54924,789.15188 C 308.61145,788.84364 307.55367,786.25401 308.91084,786.22402 L 331.94364,785.71506 z "
       id="path877" />
    <path
       style="fill:url(#radialGradient834);fill-rule:evenodd;stroke:#000000;stroke-width:1.2500000;stroke-linecap:round;stroke-linejoin:round;stroke-dashoffset:0.00000000;stroke-opacity:1.0000000;stroke-dasharray:none;"
       d="M 357.26854,768.92749 C 362.40489,764.49864 365.73496,783.76881 366.46257,786.51216 C 374.15946,815.09033 370.37173,832.20830 368.44657,842.94386 C 366.44001,852.41891 358.53871,872.33844 358.46851,882.15310 C 358.41031,890.28999 356.53553,908.87506 355.05049,916.78602 C 353.25973,926.32556 345.79584,936.80149 340.41873,941.52529 C 334.29154,946.90804 318.16383,950.14118 313.48669,952.75080 L 292.11890,964.67300 C 284.00428,969.20057 299.54534,949.45587 308.04483,945.82650 C 315.65314,942.57767 318.40671,940.64657 327.31514,938.16870 C 335.48301,935.89682 339.31609,931.70711 343.98234,920.43335 C 347.74929,911.33231 349.03069,900.19263 349.06874,892.07865 C 349.10809,883.68893 348.82536,873.73401 351.24964,865.71495 C 358.23755,844.06214 360.49671,833.36521 360.04274,811.47121 C 359.83619,801.71103 342.62493,781.55404 346.24220,778.43502 L 357.26854,768.92749 z "
       id="path878" />
    <path
       style="fill:url(#radialGradient834);fill-rule:evenodd;stroke:#000000;stroke-width:1.2500000;stroke-linecap:round;stroke-linejoin:round;stroke-dashoffset:0.00000000;stroke-opacity:1.0000000;stroke-dasharray:none;"
       d="M 224.50180,680.51196 C 228.13867,677.58170 189.38559,679.27579 180.27631,680.48956 C 171.16703,681.70333 145.23485,687.17603 135.00027,686.46251 C 110.53333,684.72592 96.706470,676.25305 82.854740,669.73706 C 73.679310,665.12810 64.883305,662.68252 58.437061,662.59382 C 51.630995,662.50016 45.365484,661.99101 41.430425,664.41045 C 37.495374,666.82989 34.868188,667.65052 33.424641,668.42285 L 24.674228,673.10454 C 21.002504,675.06900 39.237522,654.21142 54.665161,653.28777 C 67.445435,652.50005 73.144220,655.15294 81.645240,658.40768 C 90.460130,661.78258 110.68583,674.69911 129.08564,676.90101 C 137.25958,677.90325 162.57141,673.62451 183.11178,670.08101 C 193.56070,668.23879 204.53662,664.45152 213.19008,664.03773 C 221.29356,663.23638 243.30324,665.36343 238.48933,669.24205 L 224.50180,680.51196 z "
       id="path879" />
    <path
       style="fill:url(#radialGradient834);fill-rule:evenodd;stroke:#000000;stroke-width:1.2500000;stroke-linecap:round;stroke-linejoin:round;stroke-dashoffset:0.00000000;stroke-opacity:1.0000000;stroke-dasharray:none;"
       d="M 284.37256,654.16288 C 279.72121,654.51591 269.85525,645.25247 259.97563,640.64505 C 250.09601,636.03763 243.34173,633.21737 233.85977,628.20025 C 224.37782,623.18313 212.88755,613.37542 205.62515,607.13289 C 194.99046,597.61175 194.42035,579.89729 192.95114,574.75207 L 189.70263,556.15347 C 189.39579,553.58968 194.96138,562.49038 198.29509,568.16037 C 201.72119,573.98751 201.78491,577.91749 204.33040,586.66288 C 209.07235,601.43618 227.39424,612.61238 235.84977,617.29841 C 244.30531,621.98445 270.15459,632.94743 283.73259,640.95692 C 289.72910,644.29901 299.66789,653.00197 297.32866,653.17952 L 284.37256,654.16288 z "
       id="path880" />
    <path
       style="fill:url(#radialGradient834);fill-rule:evenodd;stroke:#000000;stroke-width:1.2500000;stroke-linecap:round;stroke-linejoin:round;stroke-dashoffset:0.00000000;stroke-opacity:1.0000000;stroke-dasharray:none;"
       d="M 410.82964,593.77360 C 409.53458,586.18105 406.63566,580.49555 400.27891,576.28930 C 393.04766,571.50440 383.74166,566.16517 375.59464,563.43399 C 366.71396,560.45686 361.40392,556.34157 354.39014,550.06351 C 347.34582,543.75811 344.77019,526.21300 345.08164,522.60449 L 346.57870,505.25952 C 346.86631,501.92721 351.75620,525.75205 352.18094,529.07039 C 352.92830,534.90917 355.58424,541.58150 360.04224,545.63425 C 364.64214,549.81600 372.47994,553.95688 378.02824,556.62505 C 388.47544,561.64908 395.31839,563.06626 404.67554,569.56225 C 413.99349,576.03103 413.78345,581.94864 416.04144,593.19304 C 416.04144,593.19304 411.53868,597.93048 410.82964,593.77360 z "
       id="path881" />
    <path
       style="fill:url(#radialGradient834);fill-rule:evenodd;stroke:#000000;stroke-width:1.2500000;stroke-linecap:round;stroke-linejoin:round;stroke-dashoffset:0.00000000;stroke-opacity:1.0000000;stroke-dasharray:none;"
       d="M 371.27454,596.02421 C 377.48925,587.61956 403.97519,592.18446 418.09924,587.37182 C 421.15269,586.33138 418.91658,593.81925 421.33994,600.26789 C 423.74378,606.66462 435.76984,615.35290 441.98874,620.49423 C 454.42654,630.77688 474.85088,639.30364 487.06384,648.51109 C 491.13768,651.58239 472.38998,649.64636 466.10084,653.40191 C 460.11118,656.97862 465.70210,666.98936 463.90594,669.82394 C 457.55870,679.84070 449.60304,726.91390 420.64404,703.92453 C 391.58114,680.85267 393.70120,667.16629 385.46194,653.09176 C 378.73150,641.59465 350.76865,623.75600 371.27454,596.02421 z "
       id="path882" />
    <path
       style="fill:url(#radialGradient834);fill-rule:evenodd;stroke:#000000;stroke-width:1.2500000;stroke-linecap:round;stroke-linejoin:round;stroke-dashoffset:0.00000000;stroke-opacity:1.0000000;stroke-dasharray:none;"
       d="M 472.53284,676.67396 C 482.75411,681.50814 489.83342,686.76977 495.37080,696.64539 C 499.72342,704.40806 501.23686,712.27287 504.53014,720.32401 C 508.11681,730.17284 509.10238,736.17270 517.64424,741.91022 C 525.29988,747.05248 532.72643,747.28279 544.36784,747.97678 C 550.36643,748.33438 563.14962,746.76537 559.72804,747.79888 L 542.78701,752.91600 C 537.99271,754.36415 518.07068,752.83736 508.25913,743.83146 C 501.32008,737.46219 498.34708,727.36777 495.31144,718.51730 C 489.15921,701.02227 482.83122,690.41290 471.27444,684.26527 C 461.58750,679.48274 451.30524,683.95984 453.89934,673.97666 C 453.89934,673.97666 464.03741,672.65601 472.53284,676.67396 z "
       id="path883" />
    <path
       style="fill:url(#radialGradient834);fill-rule:evenodd;stroke:#000000;stroke-width:1.2500000;stroke-linecap:round;stroke-linejoin:round;stroke-dashoffset:0.00000000;stroke-opacity:1.0000000;stroke-dasharray:none;"
       d="M 291.56836,642.86806 C 274.75711,639.98445 245.91939,656.41450 189.70808,693.19545 C 119.66277,739.02846 106.89222,762.97772 109.28799,805.14071 C 129.35428,831.86340 158.07625,841.65601 254.75120,822.56825 C 311.06164,811.45016 360.76429,783.39935 365.30674,768.33036 C 373.94899,739.66083 311.12358,646.22233 291.56836,642.86806 z "
       id="path884" />
  </g>
</svg>
